<svg width="185" height="119" viewBox="0 0 185 119" fill="none" xmlns="http://www.w3.org/2000/svg">
<path fill-rule="evenodd" clip-rule="evenodd" d="M60.1034 42.92C58.9185 44.4266 57.0227 45.6149 55.1268 45.4451C54.8898 43.408 55.818 41.2436 56.9042 39.9068C58.0891 38.3577 60.1627 37.2543 61.8413 37.1694C62.0388 39.2914 61.2686 41.3709 60.1034 42.92ZM61.8214 45.8482C60.1512 45.7449 58.6272 46.3879 57.3962 46.9073C56.604 47.2415 55.9332 47.5245 55.4228 47.5245C54.8501 47.5245 54.1516 47.2263 53.3673 46.8916C52.3397 46.4529 51.1648 45.9514 49.9327 45.9755C47.1087 46.0179 44.4821 47.7367 43.0404 50.474C40.0782 55.9487 42.2702 64.0546 45.1338 68.5107C46.536 70.7176 48.2146 73.1366 50.4264 73.0517C51.3995 73.0123 52.0995 72.6931 52.8239 72.3629C53.6579 71.9826 54.5243 71.5876 55.8771 71.5876C57.1829 71.5876 58.0114 71.9723 58.8067 72.3416C59.5629 72.6928 60.2891 73.03 61.3672 73.0093C63.658 72.9669 65.0997 70.8025 66.5018 68.5956C68.015 66.2271 68.6799 63.9155 68.7808 63.5647L68.7927 63.5241C68.7902 63.5215 68.7715 63.5123 68.7386 63.4961C68.2327 63.2473 64.3665 61.3455 64.3295 56.2458C64.2922 51.9653 67.396 49.7966 67.8846 49.4552C67.9144 49.4344 67.9344 49.4204 67.9435 49.4131C65.9686 46.2726 62.8878 45.933 61.8214 45.8482ZM77.6797 72.7759V39.6945H89.2327C95.1967 39.6945 99.3637 44.1082 99.3637 50.559C99.3637 57.0097 95.1177 61.4659 89.0747 61.4659H82.4589V72.7759H77.6797ZM82.4584 44.0235H87.9683C92.1155 44.0235 94.4853 46.4001 94.4853 50.5804C94.4853 54.7607 92.1155 57.1585 87.9485 57.1585H82.4584V44.0235ZM115.143 68.8078C113.879 71.3966 111.095 73.0305 108.093 73.0305C103.649 73.0305 100.549 70.187 100.549 65.9007C100.549 61.6567 103.551 59.2165 109.1 58.8558L115.064 58.4738V56.6489C115.064 53.954 113.425 52.4899 110.502 52.4899C108.093 52.4899 106.335 53.8267 105.98 55.8638H101.675C101.813 51.5774 105.565 48.4581 110.64 48.4581C116.111 48.4581 119.666 51.535 119.666 56.3094V72.7758H115.242V68.8078H115.143ZM109.376 69.1051C106.829 69.1051 105.209 67.7895 105.209 65.7736C105.209 63.6941 106.769 62.4846 109.751 62.2936L115.064 61.9328V63.8002C115.064 66.8982 112.615 69.1051 109.376 69.1051ZM134.339 74.0704C132.423 79.8633 130.231 81.7731 125.57 81.7731C125.215 81.7731 124.03 81.7307 123.753 81.6458V77.6777C124.05 77.7201 124.78 77.7626 125.155 77.7626C127.269 77.7626 128.453 76.8077 129.184 74.325L129.619 72.8608L121.522 48.7765H126.518L132.146 68.3198H132.245L137.874 48.7765H142.732L134.339 74.0704Z" fill="#0D32C4"/>
</svg>
