<svg width="34" height="33" viewBox="0 0 34 33" fill="none" xmlns="http://www.w3.org/2000/svg">
<path d="M2.43829 22.6396L5.25496 14.1913C6.53163 10.3613 7.16996 8.44626 8.67996 8.09126C10.19 7.73292 11.6183 9.16126 14.4716 12.0163L20.105 17.6479C22.9583 20.5029 24.3866 21.9296 24.03 23.4396C23.6733 24.9496 21.7583 25.5896 17.9283 26.8646L9.47996 29.6813C4.87163 31.2179 2.56663 31.9863 1.34996 30.7696C0.133294 29.5529 0.901627 27.2479 2.43829 22.6396Z" fill="#E949A3" stroke="white" stroke-width="1.5" stroke-linecap="round"/>
<g opacity="0.5">
<path d="M16.1434 26.9463C16.1434 26.9463 14.8801 23.1446 14.8801 20.6296C14.8801 18.113 16.1434 14.3096 16.1434 14.3096M9.19341 28.843C9.19341 28.843 8.12674 24.2546 7.93008 21.2596C7.60508 16.3113 9.19341 8.62463 9.19341 8.62463" fill="#E949A3"/>
<path d="M16.1434 26.9463C16.1434 26.9463 14.8801 23.1446 14.8801 20.6296C14.8801 18.113 16.1434 14.3096 16.1434 14.3096M9.19341 28.843C9.19341 28.843 8.12674 24.2546 7.93008 21.2596C7.60508 16.3113 9.19341 8.62463 9.19341 8.62463" stroke="white" stroke-width="1.5" stroke-linecap="round"/>
</g>
<path d="M19.935 13.0462L20.1733 11.8462C20.4167 10.6346 21.29 9.64622 22.4617 9.25622C23.0371 9.0635 23.5515 8.72241 23.9529 8.26738C24.3544 7.81236 24.6288 7.25948 24.7483 6.66455L24.9883 5.46455M25.035 18.4579L25.3883 18.6629C26.4833 19.2962 27.86 19.1562 28.8067 18.3179C29.2259 17.945 29.7433 17.7001 30.2975 17.6124C30.8517 17.5247 31.4194 17.5977 31.9333 17.8229L32.4183 18.0362M12.0767 1.00122C11.8033 1.44825 11.6883 1.97429 11.7503 2.49461C11.8122 3.01494 12.0476 3.49926 12.4183 3.86955L12.58 4.03289C13.2367 4.68789 13.4783 5.64955 13.21 6.53789" fill="#E949A3"/>
<path d="M19.935 13.0462L20.1733 11.8462C20.4167 10.6346 21.29 9.64622 22.4617 9.25622C23.0371 9.0635 23.5515 8.72241 23.9529 8.26738C24.3544 7.81236 24.6288 7.25948 24.7483 6.66455L24.9883 5.46455M25.035 18.4579L25.3883 18.6629C26.4833 19.2962 27.86 19.1562 28.8067 18.3179C29.2259 17.945 29.7433 17.7001 30.2975 17.6124C30.8517 17.5247 31.4194 17.5977 31.9333 17.8229L32.4183 18.0362M12.0767 1.00122C11.8033 1.44825 11.6883 1.97429 11.7503 2.49461C11.8122 3.01494 12.0476 3.49926 12.4183 3.86955L12.58 4.03289C13.2367 4.68789 13.4783 5.64955 13.21 6.53789" stroke="white" stroke-width="1.5" stroke-linecap="round"/>
<path opacity="0.5" d="M28.1479 22.1293C28.1996 22.1293 28.2506 22.1398 28.2983 22.1595C28.3461 22.1793 28.3897 22.208 28.4263 22.2445C28.4628 22.2811 28.4924 22.3247 28.5122 22.3724C28.532 22.4203 28.5425 22.472 28.5425 22.5238C28.5425 22.5756 28.532 22.6273 28.5122 22.6752C28.4924 22.7229 28.4628 22.7665 28.4263 22.8031C28.3524 22.8768 28.2523 22.9183 28.1479 22.9183C28.0434 22.9183 27.9426 22.877 27.8687 22.8031C27.7947 22.7291 27.7534 22.6284 27.7534 22.5238C27.7534 22.4192 27.7947 22.3185 27.8687 22.2445C27.9052 22.208 27.9488 22.1793 27.9966 22.1595C28.0445 22.1397 28.0961 22.1293 28.1479 22.1293ZM24.979 13.5355C25.0308 13.5355 25.0825 13.546 25.1304 13.5658C25.1782 13.5856 25.2217 13.6151 25.2583 13.6517C25.2949 13.6883 25.3244 13.7319 25.3442 13.7797C25.3639 13.8273 25.3735 13.8785 25.3735 13.9301C25.3735 13.9818 25.364 14.0336 25.3442 14.0814C25.3244 14.1293 25.2949 14.1727 25.2583 14.2094C25.1843 14.2833 25.0836 14.3246 24.979 14.3246C24.8745 14.3245 24.7746 14.2832 24.7007 14.2094C24.6267 14.1354 24.5845 14.0347 24.5845 13.9301C24.5846 13.8256 24.6268 13.7256 24.7007 13.6517C24.7373 13.6151 24.7808 13.5856 24.8286 13.5658C24.8763 13.5461 24.9274 13.5356 24.979 13.5355ZM16.646 8.53552C16.6978 8.53553 16.7495 8.54597 16.7974 8.5658C16.8451 8.58562 16.8887 8.61517 16.9253 8.65173C16.9618 8.68831 16.9905 8.73192 17.0103 8.77966C17.03 8.82737 17.0405 8.87842 17.0405 8.93005C17.0405 8.98186 17.0301 9.03356 17.0103 9.08142C16.9905 9.12917 16.9618 9.17278 16.9253 9.20935C16.8513 9.28333 16.7506 9.32458 16.646 9.32458C16.5414 9.32458 16.4407 9.28333 16.3667 9.20935C16.2928 9.13539 16.2515 9.03458 16.2515 8.93005C16.2516 8.8257 16.293 8.72558 16.3667 8.65173C16.4033 8.61516 16.4469 8.58562 16.4946 8.5658C16.5425 8.54597 16.5942 8.53552 16.646 8.53552ZM7.93018 3.17517C7.98197 3.17524 8.03371 3.18556 8.08154 3.20544C8.12938 3.22533 8.17289 3.2547 8.20947 3.29138C8.24598 3.32803 8.2747 3.3715 8.29443 3.41931C8.31414 3.46705 8.32471 3.51806 8.32471 3.5697C8.32464 3.62149 8.31431 3.67325 8.29443 3.72107C8.27455 3.7689 8.24518 3.81242 8.2085 3.849C8.13443 3.92281 8.03377 3.96437 7.9292 3.96423C7.82472 3.96399 7.72467 3.922 7.65088 3.84802C7.57705 3.77395 7.53551 3.67331 7.53564 3.56873C7.53589 3.46425 7.57788 3.36419 7.65186 3.29041C7.6885 3.25389 7.73197 3.22518 7.77979 3.20544C7.82753 3.18574 7.87853 3.17517 7.93018 3.17517Z" fill="#E949A3" stroke="white"/>
<path d="M31.8906 13.8044C31.6097 13.9619 31.289 14.0589 30.9648 14.1169C30.5927 14.1822 30.1964 14.2021 29.8164 14.1941L29.4424 14.1775L29.082 14.1472C28.7325 14.1122 28.4161 14.0637 28.1699 14.0193H28.1709C28.1518 14.0157 28.1334 14.011 28.1152 14.0076L28.1182 13.9949L28.6328 13.8679L29.0127 13.7742V13.4695C29.1692 13.4869 29.3261 13.5011 29.4834 13.5115H29.4844C29.9437 13.5412 30.4253 13.5363 30.8506 13.4597L30.8496 13.4587C31.0542 13.4222 31.2357 13.371 31.3926 13.3054L31.8906 13.8044ZM27.9795 9.89429C27.9315 10.009 27.8917 10.1378 27.8594 10.28L27.8271 10.4392L27.8252 10.448C27.7555 10.8989 27.7394 11.3566 27.7764 11.8113C27.7867 11.9659 27.8012 12.1202 27.8184 12.2742H27.5117L27.418 12.6541L27.29 13.1687L27.2764 13.1726C27.222 12.8811 27.1794 12.5876 27.1484 12.2927L27.1104 11.8445C27.0799 11.3539 27.0821 10.8156 27.1719 10.322V10.3201C27.2286 9.9987 27.3251 9.67775 27.4814 9.39722L27.9795 9.89429ZM32.082 10.5193C32.3791 10.687 32.6141 10.9154 32.7715 11.1912L32.8359 11.3162C33.0952 11.8773 33.0167 12.532 32.6172 13.1169L32.1348 12.6335C32.3603 12.2444 32.3567 11.8748 32.2314 11.5994C32.132 11.3804 31.9343 11.1746 31.6318 11.0378L32.082 11.0388L32.083 10.5398C32.083 10.5331 32.082 10.526 32.082 10.5193ZM28.1689 8.66968C28.7538 8.27036 29.4087 8.19279 29.9697 8.4519H29.9707C30.3014 8.60464 30.5724 8.8633 30.7646 9.20288C30.7588 9.20287 30.7529 9.20286 30.7471 9.20288L30.2471 9.20483V9.65112C30.1094 9.35068 29.9043 9.15487 29.6895 9.0564H29.6885C29.4098 8.92887 29.0385 8.92552 28.6504 9.15112L28.1689 8.66968Z" fill="#E949A3" stroke="white"/>
<path opacity="0.5" d="M21.0649 2.06461L21.0199 2.22794C20.9699 2.40461 20.9433 2.49461 20.9549 2.58128C20.9666 2.66794 21.0149 2.74461 21.1099 2.89628L21.1983 3.03294C21.5333 3.56628 21.7016 3.83294 21.5883 4.05128C21.4716 4.26961 21.1516 4.29461 20.5083 4.34461L20.3416 4.35794C20.1583 4.37294 20.0683 4.37961 19.9883 4.42128C19.9083 4.46294 19.8483 4.53461 19.7299 4.67961L19.6216 4.81128C19.2049 5.31794 18.9966 5.57128 18.7583 5.53961C18.5199 5.50794 18.4083 5.20961 18.1899 4.61461L18.1333 4.46128C18.0699 4.29128 18.0399 4.20794 17.9783 4.14461C17.9166 4.08461 17.8316 4.05294 17.6633 3.99128L17.5099 3.93461C16.9149 3.71461 16.6183 3.60461 16.5849 3.36794C16.5516 3.12794 16.8066 2.91794 17.3133 2.50128L17.4449 2.39294C17.5883 2.27628 17.6616 2.21628 17.7033 2.13628C17.7449 2.05628 17.7533 1.96461 17.7666 1.78128L17.7799 1.61461C17.8299 0.972944 17.8549 0.651277 18.0716 0.536277C18.2899 0.421277 18.5566 0.589611 19.0899 0.926277L19.2283 1.01294C19.3783 1.10961 19.4549 1.15628 19.5433 1.16794C19.6316 1.17961 19.7183 1.15461 19.8966 1.10461L20.0583 1.05961C20.6849 0.881277 20.9966 0.792944 21.1649 0.959611C21.3316 1.12628 21.2433 1.43961 21.0649 2.06461Z" fill="#E949A3" stroke="white"/>
</svg>
