<svg width="136" height="136" viewBox="0 0 136 136" fill="none" xmlns="http://www.w3.org/2000/svg">
<g filter="url(#filter0_d_1644_6431)">
<rect x="28" y="24" width="80" height="80" rx="40" fill="#FABFD3" shape-rendering="crispEdges"/>
<rect x="52.5" y="48.5" width="31" height="31" rx="15.5" fill="#FABFD3"/>
<path d="M68.0042 76.75C66.2419 76.75 64.5844 76.4157 63.0317 75.747C61.48 75.0774 60.1299 74.1688 58.9815 73.0213C57.8331 71.8738 56.924 70.5252 56.2544 68.9753C55.5848 67.4255 55.25 65.7685 55.25 64.0042C55.25 62.24 55.5848 60.5825 56.2544 59.0317C56.9231 57.48 57.8302 56.1299 58.9758 54.9815C60.1214 53.8331 61.4706 52.924 63.0233 52.2544C64.5759 51.5848 66.2334 51.25 67.9957 51.25C69.7581 51.25 71.4156 51.5848 72.9683 52.2544C74.52 52.9231 75.8701 53.8307 77.0185 54.9772C78.1669 56.1238 79.076 57.4729 79.7456 59.0247C80.4152 60.5764 80.75 62.2334 80.75 63.9957C80.75 65.7581 80.4157 67.4156 79.747 68.9683C79.0783 70.5209 78.1698 71.871 77.0213 73.0185C75.8729 74.166 74.5242 75.075 72.9753 75.7456C71.4264 76.4161 69.7694 76.7509 68.0042 76.75ZM68 75.3333C71.1639 75.3333 73.8437 74.2354 76.0396 72.0396C78.2354 69.8437 79.3333 67.1639 79.3333 64C79.3333 60.8361 78.2354 58.1562 76.0396 55.9604C73.8437 53.7646 71.1639 52.6667 68 52.6667C64.8361 52.6667 62.1562 53.7646 59.9604 55.9604C57.7646 58.1562 56.6667 60.8361 56.6667 64C56.6667 67.1639 57.7646 69.8437 59.9604 72.0396C62.1562 74.2354 64.8361 75.3333 68 75.3333ZM68.0071 71.0833C66.0407 71.0833 64.3677 70.3953 62.9878 69.0192C61.608 67.6432 60.9176 65.9725 60.9167 64.0071C60.9157 62.0417 61.6037 60.3677 62.9807 58.985C64.3577 57.6023 66.0285 56.9129 67.9929 56.9167C69.9574 56.9204 71.6309 57.6085 73.0136 58.9807C74.3962 60.353 75.0862 62.0237 75.0833 63.9929C75.0805 65.9621 74.3925 67.6356 73.0192 69.0136C71.646 70.3915 69.9753 71.0814 68.0071 71.0833ZM68 69.6667C69.5583 69.6667 70.8924 69.1118 72.0021 68.0021C73.1118 66.8924 73.6667 65.5583 73.6667 64C73.6667 62.4417 73.1118 61.1076 72.0021 59.9979C70.8924 58.8882 69.5583 58.3333 68 58.3333C66.4417 58.3333 65.1076 58.8882 63.9979 59.9979C62.8882 61.1076 62.3333 62.4417 62.3333 64C62.3333 65.5583 62.8882 66.8924 63.9979 68.0021C65.1076 69.1118 66.4417 69.6667 68 69.6667ZM68 65.4167C67.6203 65.4167 67.2893 65.2755 67.0069 64.9931C66.7245 64.7107 66.5833 64.3797 66.5833 64C66.5833 63.6203 66.7245 63.2893 67.0069 63.0069C67.2893 62.7245 67.6203 62.5833 68 62.5833C68.3797 62.5833 68.7107 62.7245 68.9931 63.0069C69.2755 63.2893 69.4167 63.6203 69.4167 64C69.4167 64.3797 69.2755 64.7107 68.9931 64.9931C68.7107 65.2755 68.3797 65.4167 68 65.4167Z" fill="#D62D88"/>
</g>
<defs>
<filter id="filter0_d_1644_6431" x="0" y="0" width="136" height="136" filterUnits="userSpaceOnUse" color-interpolation-filters="sRGB">
<feFlood flood-opacity="0" result="BackgroundImageFix"/>
<feColorMatrix in="SourceAlpha" type="matrix" values="0 0 0 0 0 0 0 0 0 0 0 0 0 0 0 0 0 0 127 0" result="hardAlpha"/>
<feOffset dy="4"/>
<feGaussianBlur stdDeviation="14"/>
<feComposite in2="hardAlpha" operator="out"/>
<feColorMatrix type="matrix" values="0 0 0 0 0 0 0 0 0 0 0 0 0 0 0 0 0 0 0.05 0"/>
<feBlend mode="normal" in2="BackgroundImageFix" result="effect1_dropShadow_1644_6431"/>
<feBlend mode="normal" in="SourceGraphic" in2="effect1_dropShadow_1644_6431" result="shape"/>
</filter>
</defs>
</svg>
