<svg width="31" height="31" viewBox="0 0 31 31" fill="none" xmlns="http://www.w3.org/2000/svg">
<rect width="31" height="31" rx="15.5" fill="#FABFD3"/>
<path d="M14.9792 21.75C19.1458 21.75 22.75 19.4375 24.6042 16.0208C22.75 12.6042 19.1458 10.2917 14.9792 10.2917C10.8125 10.2917 7.20833 12.6042 5.35417 16.0208C7.20833 19.4375 10.8125 21.75 14.9792 21.75ZM14.9792 9.25C19.7292 9.25 23.8333 12.0104 25.7708 16.0208C23.8333 20.0313 19.7292 22.7917 14.9792 22.7917C10.2292 22.7917 6.125 20.0313 4.1875 16.0208C6.125 12.0104 10.2292 9.25 14.9792 9.25ZM14.9792 11.3333C17.5833 11.3333 19.6667 13.4167 19.6667 16.0208C19.6667 18.625 17.5833 20.7083 14.9792 20.7083C12.375 20.7083 10.2917 18.625 10.2917 16.0208C10.2917 13.4167 12.375 11.3333 14.9792 11.3333ZM14.9792 12.375C14.0122 12.375 13.0849 12.7591 12.4012 13.4428C11.7174 14.1266 11.3333 15.0539 11.3333 16.0208C11.3333 16.9878 11.7174 17.9151 12.4012 18.5988C13.0849 19.2826 14.0122 19.6667 14.9792 19.6667C15.9461 19.6667 16.8734 19.2826 17.5572 18.5988C18.2409 17.9151 18.625 16.9878 18.625 16.0208C18.625 15.0539 18.2409 14.1266 17.5572 13.4428C16.8734 12.7591 15.9461 12.375 14.9792 12.375Z" fill="#D62D88"/>
</svg>
