<svg width="136" height="136" viewBox="0 0 136 136" fill="none" xmlns="http://www.w3.org/2000/svg">
<g filter="url(#filter0_d_412_1788)">
<rect x="28" y="24" width="80" height="80" rx="40" fill="#FABFD3" shape-rendering="crispEdges"/>
<path d="M74.0372 46.457H81.7229V54.1427M81.7201 46.457L72.7001 55.4742L81.7201 46.457ZM66.3544 70.7513V82.3142V70.7513ZM61.2286 77.1913H71.4772H61.2286ZM57.4258 61.8227C57.4258 62.9953 57.6567 64.1563 58.1054 65.2396C58.5541 66.3228 59.2118 67.3071 60.0409 68.1362C60.87 68.9653 61.8543 69.623 62.9375 70.0717C64.0208 70.5204 65.1818 70.7513 66.3544 70.7513C67.5269 70.7513 68.6879 70.5204 69.7712 70.0717C70.8544 69.623 71.8387 68.9653 72.6678 68.1362C73.4969 67.3071 74.1546 66.3228 74.6033 65.2396C75.052 64.1563 75.2829 62.9953 75.2829 61.8227C75.2829 60.6502 75.052 59.4892 74.6033 58.4059C74.1546 57.3227 73.4969 56.3384 72.6678 55.5093C71.8387 54.6802 70.8544 54.0225 69.7712 53.5738C68.6879 53.1251 67.5269 52.8942 66.3544 52.8942C65.1818 52.8942 64.0208 53.1251 62.9375 53.5738C61.8543 54.0225 60.87 54.6802 60.0409 55.5093C59.2118 56.3384 58.5541 57.3227 58.1054 58.4059C57.6567 59.4892 57.4258 60.6502 57.4258 61.8227ZM63.1715 59.437H69.5344H63.1715ZM63.1715 64.2085H69.5344H63.1715Z" fill="#E949A3"/>
<path d="M74.0372 46.457H81.7229V54.1427M81.7201 46.457L72.7001 55.4742M66.3544 70.7513V82.3142M66.3544 70.7513C65.1818 70.7513 64.0208 70.5204 62.9375 70.0717C61.8543 69.623 60.87 68.9653 60.0409 68.1362C59.2118 67.3071 58.5541 66.3228 58.1054 65.2396C57.6567 64.1563 57.4258 62.9953 57.4258 61.8227C57.4258 60.6502 57.6567 59.4892 58.1054 58.4059C58.5541 57.3227 59.2118 56.3384 60.0409 55.5093C60.87 54.6802 61.8543 54.0225 62.9375 53.5738C64.0208 53.1251 65.1818 52.8942 66.3544 52.8942C67.5269 52.8942 68.6879 53.1251 69.7712 53.5738C70.8544 54.0225 71.8387 54.6802 72.6678 55.5093C73.4969 56.3384 74.1546 57.3227 74.6033 58.4059C75.052 59.4892 75.2829 60.6502 75.2829 61.8227C75.2829 62.9953 75.052 64.1563 74.6033 65.2396C74.1546 66.3228 73.4969 67.3071 72.6678 68.1362C71.8387 68.9653 70.8544 69.623 69.7712 70.0717C68.6879 70.5204 67.5269 70.7513 66.3544 70.7513ZM61.2286 77.1913H71.4772M63.1715 59.437H69.5344M63.1715 64.2085H69.5344" stroke="black" stroke-linecap="round" stroke-linejoin="round"/>
</g>
<defs>
<filter id="filter0_d_412_1788" x="0" y="0" width="136" height="136" filterUnits="userSpaceOnUse" color-interpolation-filters="sRGB">
<feFlood flood-opacity="0" result="BackgroundImageFix"/>
<feColorMatrix in="SourceAlpha" type="matrix" values="0 0 0 0 0 0 0 0 0 0 0 0 0 0 0 0 0 0 127 0" result="hardAlpha"/>
<feOffset dy="4"/>
<feGaussianBlur stdDeviation="14"/>
<feComposite in2="hardAlpha" operator="out"/>
<feColorMatrix type="matrix" values="0 0 0 0 0 0 0 0 0 0 0 0 0 0 0 0 0 0 0.05 0"/>
<feBlend mode="normal" in2="BackgroundImageFix" result="effect1_dropShadow_412_1788"/>
<feBlend mode="normal" in="SourceGraphic" in2="effect1_dropShadow_412_1788" result="shape"/>
</filter>
</defs>
</svg>
