<svg width="136" height="136" viewBox="0 0 136 136" fill="none" xmlns="http://www.w3.org/2000/svg">
<g filter="url(#filter0_d_412_1794)">
<rect x="28" y="24" width="80" height="80" rx="40" fill="#FABFD3" shape-rendering="crispEdges"/>
<path d="M79.6667 61.5001L83.8333 69.0001L79.6667 69.8334V74.8334H77.1667L72.1667 74.0001L71.3333 79.8334H58.8333L57.1667 71.1826C54.6 68.7526 53 65.3134 53 61.5001C53 54.1359 58.9692 48.1667 66.3333 48.1667C73.6975 48.1667 79.6667 54.1359 79.6667 61.5001Z" fill="#E949A3" stroke="black" stroke-width="2" stroke-linecap="round" stroke-linejoin="round"/>
<path d="M62.1665 59.8334C62.1665 59.0093 62.4109 58.2037 62.8687 57.5185C63.3266 56.8333 63.9773 56.2993 64.7387 55.9839C65.5 55.6686 66.3378 55.586 67.146 55.7468C67.9543 55.9076 68.6967 56.3044 69.2794 56.8871C69.8622 57.4699 70.259 58.2123 70.4198 59.0205C70.5805 59.8288 70.498 60.6666 70.1827 61.4279C69.8673 62.1893 69.3333 62.84 68.648 63.2979C67.9628 63.7557 67.1573 64.0001 66.3332 64.0001V66.5001M66.3332 71.5001V72.3334V71.5001Z" fill="#E949A3"/>
<path d="M62.1665 59.8334C62.1665 59.0093 62.4109 58.2037 62.8687 57.5185C63.3266 56.8333 63.9773 56.2993 64.7387 55.9839C65.5 55.6686 66.3378 55.586 67.146 55.7468C67.9543 55.9076 68.6967 56.3044 69.2794 56.8871C69.8622 57.4699 70.259 58.2123 70.4198 59.0205C70.5805 59.8288 70.498 60.6666 70.1827 61.4279C69.8673 62.1893 69.3333 62.84 68.648 63.2979C67.9628 63.7557 67.1573 64.0001 66.3332 64.0001V66.5001M66.3332 71.5001V72.3334" stroke="black" stroke-width="2" stroke-linecap="round" stroke-linejoin="round"/>
</g>
<defs>
<filter id="filter0_d_412_1794" x="0" y="0" width="136" height="136" filterUnits="userSpaceOnUse" color-interpolation-filters="sRGB">
<feFlood flood-opacity="0" result="BackgroundImageFix"/>
<feColorMatrix in="SourceAlpha" type="matrix" values="0 0 0 0 0 0 0 0 0 0 0 0 0 0 0 0 0 0 127 0" result="hardAlpha"/>
<feOffset dy="4"/>
<feGaussianBlur stdDeviation="14"/>
<feComposite in2="hardAlpha" operator="out"/>
<feColorMatrix type="matrix" values="0 0 0 0 0 0 0 0 0 0 0 0 0 0 0 0 0 0 0.05 0"/>
<feBlend mode="normal" in2="BackgroundImageFix" result="effect1_dropShadow_412_1794"/>
<feBlend mode="normal" in="SourceGraphic" in2="effect1_dropShadow_412_1794" result="shape"/>
</filter>
</defs>
</svg>
