<svg width="23" height="15" viewBox="0 0 23 15" fill="none" xmlns="http://www.w3.org/2000/svg">
<path d="M16.0274 0.295798C15.952 0.388761 15.8922 0.499362 15.8514 0.621222C15.8106 0.743081 15.7896 0.873786 15.7896 1.0058C15.7896 1.13781 15.8106 1.26852 15.8514 1.39038C15.8922 1.51223 15.952 1.62284 16.0274 1.7158L19.7248 6.3158H0.80378C0.590604 6.3158 0.38616 6.42115 0.235422 6.60869C0.0846837 6.79623 0 7.05058 0 7.3158C0 7.58102 0.0846837 7.83537 0.235422 8.0229C0.38616 8.21044 0.590604 8.3158 0.80378 8.3158H19.7087L16.0274 12.8858C15.8777 13.0732 15.7936 13.3266 15.7936 13.5908C15.7936 13.855 15.8777 14.1084 16.0274 14.2958C16.178 14.482 16.3817 14.5866 16.594 14.5866C16.8064 14.5866 17.0101 14.482 17.1607 14.2958L22.2727 7.9358C22.3415 7.85367 22.3963 7.75508 22.4337 7.64596C22.4711 7.53683 22.4904 7.41943 22.4904 7.3008C22.4904 7.18217 22.4711 7.06476 22.4337 6.95564C22.3963 6.84652 22.3415 6.74793 22.2727 6.6658L17.1687 0.295798C17.094 0.20207 17.0051 0.127676 16.9072 0.0769072C16.8092 0.0261385 16.7042 0 16.5981 0C16.4919 0 16.3869 0.0261385 16.2889 0.0769072C16.191 0.127676 16.1021 0.20207 16.0274 0.295798Z" fill="#E463A4"/>
</svg>
