<svg width="136" height="136" viewBox="0 0 136 136" fill="none" xmlns="http://www.w3.org/2000/svg">
<g filter="url(#filter0_d_1795_2796)">
<rect x="28" y="24" width="80" height="80" rx="40" fill="#D62D88" shape-rendering="crispEdges"/>
<g clip-path="url(#clip0_1795_2796)">
<path d="M74.465 46.5C78.67 46.5 81.75 49.925 81.75 54.625C81.75 58.9875 79.26 63.0225 75.195 66.7025C74.7783 67.0792 74.3542 67.4442 73.9225 67.7975L76.7125 81.7575C76.7776 82.0836 76.7548 82.4211 76.6465 82.7354C76.5382 83.0498 76.3483 83.3297 76.0962 83.5465C75.844 83.7632 75.5388 83.909 75.2118 83.969C74.8847 84.0289 74.5476 84.0008 74.235 83.8875L68.2125 81.6975C68.0752 81.6479 67.9248 81.6479 67.7875 81.6975L61.765 83.8875C61.4524 84.0008 61.1153 84.0289 60.7882 83.969C60.4612 83.909 60.156 83.7632 59.9038 83.5465C59.6517 83.3297 59.4618 83.0498 59.3535 82.7354C59.2452 82.4211 59.2224 82.0836 59.2875 81.7575L62.075 67.7975C61.6413 67.4428 61.2162 67.0777 60.8 66.7025C56.7425 63.0225 54.25 58.9875 54.25 54.625C54.25 49.925 57.33 46.5 61.535 46.5C63.9425 46.5 66.1425 47.5075 67.72 49.1825L68 49.495L68.28 49.1825C69.7702 47.5942 71.8132 46.6384 73.9875 46.5125L74.465 46.5ZM65.4125 70.2375L63.6175 79.2225L66.505 78.1725C67.3295 77.8733 68.2249 77.8289 69.075 78.045L69.495 78.1725L72.38 79.2225L70.585 70.2425C70.085 70.5675 69.6642 70.8292 69.3225 71.0275L68.9 71.27C68.6241 71.421 68.3146 71.5001 68 71.5001C67.6854 71.5001 67.3759 71.421 67.1 71.27C66.6632 71.0263 66.2339 70.7695 65.8125 70.5L65.4125 70.2375ZM74.465 50.25C72.3075 50.25 70.4375 51.7 69.8 53.8975C69.2775 55.7 66.7225 55.7 66.2 53.8975C65.5625 51.7 63.6925 50.25 61.535 50.25C59.495 50.25 58 51.9125 58 54.625C58 57.7 59.965 60.885 63.32 63.9225C64.545 65.03 65.865 66.0375 67.185 66.9175L67.9975 67.4425L68.1875 67.325L68.815 66.9175C70.1767 66.0176 71.4687 65.0165 72.68 63.9225C76.035 60.885 78 57.6975 78 54.625C78 51.9125 76.505 50.25 74.465 50.25Z" fill="white"/>
</g>
</g>
<defs>
<filter id="filter0_d_1795_2796" x="0" y="0" width="136" height="136" filterUnits="userSpaceOnUse" color-interpolation-filters="sRGB">
<feFlood flood-opacity="0" result="BackgroundImageFix"/>
<feColorMatrix in="SourceAlpha" type="matrix" values="0 0 0 0 0 0 0 0 0 0 0 0 0 0 0 0 0 0 127 0" result="hardAlpha"/>
<feOffset dy="4"/>
<feGaussianBlur stdDeviation="14"/>
<feComposite in2="hardAlpha" operator="out"/>
<feColorMatrix type="matrix" values="0 0 0 0 0 0 0 0 0 0 0 0 0 0 0 0 0 0 0.05 0"/>
<feBlend mode="normal" in2="BackgroundImageFix" result="effect1_dropShadow_1795_2796"/>
<feBlend mode="normal" in="SourceGraphic" in2="effect1_dropShadow_1795_2796" result="shape"/>
</filter>
<clipPath id="clip0_1795_2796">
<rect width="40" height="40" fill="white" transform="translate(48 44)"/>
</clipPath>
</defs>
</svg>
