<svg width="31" height="31" viewBox="0 0 31 31" fill="none" xmlns="http://www.w3.org/2000/svg">
<rect width="31" height="31" rx="15.5" fill="#FABFD3"/>
<path d="M15.5042 28.25C13.7419 28.25 12.0844 27.9157 10.5317 27.247C8.98003 26.5774 7.62994 25.6688 6.4815 24.5213C5.33306 23.3738 4.42403 22.0252 3.75442 20.4753C3.08481 18.9255 2.75 17.2685 2.75 15.5042C2.75 13.74 3.08481 12.0825 3.75442 10.5317C4.42308 8.98003 5.33022 7.62994 6.47583 6.4815C7.62144 5.33306 8.97058 4.42403 10.5233 3.75442C12.0759 3.08481 13.7334 2.75 15.4957 2.75C17.2581 2.75 18.9156 3.08481 20.4683 3.75442C22.02 4.42308 23.3701 5.33069 24.5185 6.47725C25.6669 7.62381 26.576 8.97294 27.2456 10.5247C27.9152 12.0764 28.25 13.7334 28.25 15.4957C28.25 17.2581 27.9157 18.9156 27.247 20.4683C26.5783 22.0209 25.6698 23.371 24.5213 24.5185C23.3729 25.666 22.0242 26.575 20.4753 27.2456C18.9264 27.9161 17.2694 28.2509 15.5042 28.25ZM15.5 26.8333C18.6639 26.8333 21.3437 25.7354 23.5396 23.5396C25.7354 21.3437 26.8333 18.6639 26.8333 15.5C26.8333 12.3361 25.7354 9.65625 23.5396 7.46042C21.3437 5.26458 18.6639 4.16667 15.5 4.16667C12.3361 4.16667 9.65625 5.26458 7.46042 7.46042C5.26458 9.65625 4.16667 12.3361 4.16667 15.5C4.16667 18.6639 5.26458 21.3437 7.46042 23.5396C9.65625 25.7354 12.3361 26.8333 15.5 26.8333ZM15.5071 22.5833C13.5407 22.5833 11.8677 21.8953 10.4878 20.5192C9.108 19.1432 8.41761 17.4725 8.41667 15.5071C8.41572 13.5417 9.10375 11.8677 10.4807 10.485C11.8577 9.10233 13.5285 8.41289 15.4929 8.41667C17.4574 8.42044 19.1309 9.10847 20.5136 10.4807C21.8962 11.853 22.5862 13.5237 22.5833 15.4929C22.5805 17.4621 21.8925 19.1356 20.5192 20.5136C19.146 21.8915 17.4753 22.5814 15.5071 22.5833ZM15.5 21.1667C17.0583 21.1667 18.3924 20.6118 19.5021 19.5021C20.6118 18.3924 21.1667 17.0583 21.1667 15.5C21.1667 13.9417 20.6118 12.6076 19.5021 11.4979C18.3924 10.3882 17.0583 9.83333 15.5 9.83333C13.9417 9.83333 12.6076 10.3882 11.4979 11.4979C10.3882 12.6076 9.83333 13.9417 9.83333 15.5C9.83333 17.0583 10.3882 18.3924 11.4979 19.5021C12.6076 20.6118 13.9417 21.1667 15.5 21.1667ZM15.5 16.9167C15.1203 16.9167 14.7893 16.7755 14.5069 16.4931C14.2245 16.2107 14.0833 15.8797 14.0833 15.5C14.0833 15.1203 14.2245 14.7893 14.5069 14.5069C14.7893 14.2245 15.1203 14.0833 15.5 14.0833C15.8797 14.0833 16.2107 14.2245 16.4931 14.5069C16.7755 14.7893 16.9167 15.1203 16.9167 15.5C16.9167 15.8797 16.7755 16.2107 16.4931 16.4931C16.2107 16.7755 15.8797 16.9167 15.5 16.9167Z" fill="#D62D88"/>
</svg>
