<svg width="256" height="166" viewBox="0 0 256 166" fill="none" xmlns="http://www.w3.org/2000/svg">
<g opacity="0.4">
<path fill-rule="evenodd" clip-rule="evenodd" d="M44.1463 75.5056C43.7618 76.4669 43.5695 77.4922 43.3132 78.5176C42.6723 81.5936 42.1597 84.8619 41.4547 87.9379C40.0449 87.9379 38.571 87.9379 37.1611 87.9379C38.7632 77.5563 41.7111 67.4311 42.9927 56.2805C44.4026 56.2805 45.8124 56.2805 47.1582 56.2805C46.9659 57.3058 46.7096 58.2671 46.5814 59.2924C46.5814 59.3565 46.4533 59.4206 46.4533 59.5488C48.3758 57.0495 51.3236 55.3192 56.0018 55.8319C60.6158 56.2805 63.1151 59.9333 63.3073 64.2269C63.7559 72.4296 59.3982 79.8633 50.4265 79.2225C47.4786 79.0302 45.2357 77.9408 44.1463 75.5056ZM50.1701 59.9333C46.3892 61.8558 42.7364 70.6993 47.03 74.4803C49.8497 76.9796 54.2715 75.6338 56.1299 73.3268C58.2447 70.6993 60.1672 63.1375 56.963 60.4459C55.8736 59.5488 54.1433 59.2284 52.5412 59.4206C51.3877 59.4847 50.811 59.6129 50.1701 59.9333Z" fill="#1A1A1A"/>
<path fill-rule="evenodd" clip-rule="evenodd" d="M83.1091 78.774C81.7633 78.774 80.4175 78.774 79.0077 78.774C79.1999 77.4923 79.4563 76.2747 79.7126 75.0572C78.495 76.8515 76.3803 78.9022 73.3042 79.2226C68.8825 79.6712 64.8452 77.4283 64.4607 73.7755C64.3325 72.5579 64.3966 70.5713 65.4219 69.0333C67.9853 64.996 74.65 64.7397 81.2506 64.9319C83.2372 57.6264 72.5993 58.7158 68.9465 61.0869C69.1388 59.6771 69.4592 58.3313 69.6515 56.9215C76.2521 54.8708 85.1597 55.3835 85.6724 62.4967C85.8647 65.3164 85.0316 68.072 84.5189 70.7635C84.0062 73.391 83.4936 75.9543 83.1091 78.774ZM69.1388 72.9424C69.267 74.8008 71.3176 75.8262 72.9838 75.8262C77.5338 75.8903 79.7126 71.9171 80.4175 68.0079C75.2908 67.7516 68.8184 68.3925 69.1388 72.9424Z" fill="#1A1A1A"/>
<path fill-rule="evenodd" clip-rule="evenodd" d="M92.9781 56.3442C93.9393 62.304 95.0928 68.0716 95.99 74.1595C99.3865 68.3279 102.527 62.2399 105.859 56.3442C107.397 56.3442 108.935 56.3442 110.537 56.3442C106.436 63.778 101.629 71.9166 97.0154 79.7348C95.6055 82.17 94.1957 85.4383 92.145 87.0404C90.3506 88.4502 86.8901 88.7706 84.0063 88.1939C84.0704 86.9122 84.519 85.9509 84.5831 84.7333C85.1599 84.6693 85.8648 85.0538 86.5697 85.0538C89.7098 85.0538 91.4401 82.17 92.5936 79.9271C91.2478 72.1729 89.7739 64.4829 88.4281 56.6647C88.3 56.5365 88.364 56.4724 88.4281 56.3442C89.9661 56.3442 91.5041 56.3442 92.9781 56.3442Z" fill="#1A1A1A"/>
<path fill-rule="evenodd" clip-rule="evenodd" d="M112.395 91.9107C111.434 97.3578 110.216 102.485 109.255 107.932C106.243 107.932 103.231 107.932 100.155 107.932C101.565 101.267 102.783 94.6663 104.128 88.0657C105.474 81.5291 107.076 74.9926 107.845 68.0716C110.281 67.8793 113.549 67.8793 115.984 68.0716C115.92 69.6096 115.535 70.8912 115.407 72.3652C117.778 69.9941 120.342 66.854 125.789 67.3666C130.98 67.8793 133.863 72.237 134.248 77.7482C134.953 87.2326 130.339 96.5247 122.008 97.1656C116.817 97.5501 114.382 95.179 112.395 91.9107ZM116.048 77.7482C113.933 80.7601 113.228 86.5277 115.92 88.7706C117.586 90.1805 120.662 89.4755 122.072 88.322C123.866 86.8481 125.148 84.0284 125.084 80.5038C125.02 77.2996 123.61 74.6081 120.213 75.0567C118.227 75.313 117.009 76.3384 116.048 77.7482Z" fill="#1A1A1A"/>
<path fill-rule="evenodd" clip-rule="evenodd" d="M159.176 96.5889C156.805 96.5248 154.114 96.717 151.935 96.4607C152.191 95.179 152.191 93.5769 152.384 92.2953C151.679 93.0002 151.166 94.0255 150.269 94.8586C147.321 97.5501 140.72 98.1269 137.452 95.4354C133.927 92.4875 134.504 85.4383 137.452 82.4264C140.848 78.9017 147.257 78.0046 153.857 78.7095C154.498 76.018 152.704 74.3518 150.461 74.0314C147.193 73.5828 142.835 74.9926 140.913 76.1462C141.297 73.8391 141.425 71.3399 141.874 69.0329C144.181 68.1998 146.36 67.5589 149.115 67.4308C156.741 66.9181 161.996 69.4814 162.509 76.018C162.765 79.4785 161.74 83.0672 160.971 86.4636C160.266 89.796 159.753 93.1924 159.176 96.5889ZM150.012 83.7721C147.257 83.8362 144.245 84.7334 143.604 86.784C143.091 88.5784 144.373 90.2446 145.719 90.5009C149.948 91.3981 152.832 87.2326 153.153 83.9003C152.191 83.708 150.781 83.7721 150.012 83.7721Z" fill="#1A1A1A"/>
<path fill-rule="evenodd" clip-rule="evenodd" d="M187.117 69.0327C186.669 71.3397 185.836 73.2622 185.387 75.5692C183.144 74.8002 180.453 73.6467 176.928 74.0312C175.518 74.2235 174.108 74.9284 174.108 76.3382C174.172 78.0685 176.8 78.7093 178.402 79.3502C180.645 80.3114 183.336 81.5931 184.426 83.5156C186.284 86.848 184.426 91.7183 182.439 93.769C180.773 95.4993 177.633 96.9091 174.429 97.1654C170.263 97.4859 165.906 96.7169 162.317 95.7556C162.83 93.3845 163.406 91.2057 164.047 89.0268C166.418 89.9881 169.11 90.8852 172.763 90.5648C174.493 90.3726 176.415 89.7958 176.159 87.7451C175.967 86.0789 173.467 85.5022 171.609 84.7332C168.149 83.3233 165.585 81.529 165.585 76.8509C165.585 67.2383 178.915 65.6362 187.117 69.0327Z" fill="#1A1A1A"/>
<path fill-rule="evenodd" clip-rule="evenodd" d="M209.803 69.033C209.29 71.276 208.585 73.3907 207.945 75.5696C205.83 74.7365 203.074 73.6471 199.55 74.0316C198.14 74.1597 196.73 74.8647 196.73 76.3386C196.794 78.1329 199.998 79.0942 201.472 79.735C204.484 81.0167 207.368 82.4265 207.752 85.8871C208.137 89.2835 206.727 92.0391 204.74 93.8975C202.882 95.6919 200.126 96.9095 197.05 97.1658C192.821 97.4862 188.719 96.7172 184.938 95.756C185.323 93.3208 186.092 91.3342 186.541 89.0272C188.271 89.5398 189.937 90.3729 191.988 90.5652C194.871 90.8215 198.781 90.6293 198.716 88.13C198.652 85.4385 193.077 84.8617 190.898 83.1315C188.527 81.273 187.053 76.7231 188.912 73.0062C191.988 67.2387 202.562 65.957 209.803 69.033Z" fill="#1A1A1A"/>
<path d="M213.199 71.9808H212.046L212.11 71.5322H214.93L214.866 71.9808H213.712L213.071 75.5054H212.559L213.199 71.9808Z" fill="#1A1A1A"/>
<path d="M217.941 75.5054L218.198 73.3907C218.262 73.0062 218.326 72.4294 218.39 72.0449C218.198 72.4294 218.006 72.9421 217.749 73.3266L216.596 75.5054H216.211L215.891 73.3907C215.827 72.9421 215.763 72.4935 215.763 72.0449C215.699 72.4294 215.57 73.0062 215.442 73.3907L214.93 75.5054H214.481L215.506 71.5322H216.147L216.468 73.7752C216.532 74.0956 216.532 74.4801 216.532 74.8005C216.66 74.4801 216.852 74.1597 216.98 73.8392L218.198 71.5322H218.839L218.326 75.5054H217.941Z" fill="#1A1A1A"/>
</g>
</svg>
