<svg width="180" height="116" viewBox="0 0 180 116" fill="none" xmlns="http://www.w3.org/2000/svg">
<path fill-rule="evenodd" clip-rule="evenodd" d="M30.8738 52.8054C30.6049 53.4776 30.4705 54.1947 30.2912 54.9118C29.843 57.063 29.4845 59.3487 28.9915 61.4999C28.0055 61.4999 26.9747 61.4999 25.9888 61.4999C27.1092 54.2395 29.1708 47.1584 30.0671 39.3602C31.0531 39.3602 32.0391 39.3602 32.9803 39.3602C32.8458 40.0773 32.6665 40.7495 32.5769 41.4666C32.5769 41.5114 32.4873 41.5563 32.4873 41.6459C33.8318 39.898 35.8934 38.688 39.165 39.0465C42.3919 39.3602 44.1397 41.9148 44.2742 44.9176C44.5879 50.6542 41.5403 55.853 35.2659 55.4048C33.2043 55.2703 31.6357 54.5084 30.8738 52.8054ZM35.0867 41.9148C32.4425 43.2593 29.8879 49.4441 32.8906 52.0883C34.8626 53.8362 37.955 52.895 39.2547 51.2816C40.7336 49.4441 42.0782 44.1557 39.8373 42.2733C39.0754 41.6459 37.8653 41.4218 36.7449 41.5563C35.9382 41.6011 35.5348 41.6907 35.0867 41.9148Z" fill="#C37215"/>
<path fill-rule="evenodd" clip-rule="evenodd" d="M58.1227 55.0909C57.1815 55.0909 56.2403 55.0909 55.2544 55.0909C55.3888 54.1946 55.5681 53.3431 55.7474 52.4915C54.8958 53.7464 53.4168 55.1806 51.2656 55.4047C48.1732 55.7184 45.3497 54.1498 45.0808 51.5952C44.9912 50.7437 45.036 49.3543 45.7531 48.2787C47.5458 45.4552 52.2068 45.276 56.823 45.4104C58.2123 40.3013 50.7726 41.0631 48.218 42.7214C48.3525 41.7354 48.5766 40.7942 48.711 39.8083C53.3272 38.3741 59.5568 38.7326 59.9153 43.7074C60.0498 45.6793 59.4672 47.6065 59.1086 49.4888C58.7501 51.3263 58.3916 53.119 58.1227 55.0909ZM48.3525 51.0126C48.4421 52.3123 49.8763 53.0293 51.0415 53.0293C54.2236 53.0742 55.7473 50.2955 56.2403 47.5616C52.655 47.3824 48.1284 47.8305 48.3525 51.0126Z" fill="#C37215"/>
<path fill-rule="evenodd" clip-rule="evenodd" d="M65.0247 39.4048C65.6969 43.5728 66.5036 47.6063 67.1311 51.864C69.5064 47.7856 71.7024 43.528 74.0329 39.4048C75.1085 39.4048 76.1841 39.4048 77.3046 39.4048C74.4363 44.6036 71.075 50.2954 67.8481 55.7631C66.8622 57.4661 65.8762 59.7518 64.442 60.8722C63.1872 61.8582 60.767 62.0823 58.7502 61.6789C58.7951 60.7826 59.1088 60.1103 59.1536 59.2588C59.557 59.214 60.0499 59.4829 60.5429 59.4829C62.739 59.4829 63.949 57.4661 64.7557 55.8975C63.8146 50.4746 62.7838 45.0966 61.8426 39.6289C61.753 39.5392 61.7978 39.4944 61.8426 39.4048C62.9182 39.4048 63.9939 39.4048 65.0247 39.4048Z" fill="#C37215"/>
<path fill-rule="evenodd" clip-rule="evenodd" d="M78.604 64.2786C77.9318 68.0881 77.0802 71.6734 76.408 75.4829C74.3016 75.4829 72.1952 75.4829 70.0439 75.4829C71.0299 70.8219 71.8814 66.2057 72.8226 61.5896C73.7638 57.0182 74.8842 52.4468 75.422 47.6066C77.1251 47.4721 79.4107 47.4721 81.1138 47.6066C81.069 48.6822 80.8001 49.5785 80.7104 50.6093C82.3687 48.9511 84.1614 46.7551 87.9708 47.1136C91.601 47.4721 93.6178 50.5197 93.8867 54.374C94.3797 61.0069 91.1529 67.5054 85.3266 67.9536C81.6964 68.2225 79.9934 66.5643 78.604 64.2786ZM81.1586 54.374C79.6796 56.4804 79.1867 60.5139 81.069 62.0825C82.2342 63.0685 84.3854 62.5755 85.3714 61.7688C86.6263 60.738 87.5227 58.7661 87.4778 56.3011C87.433 54.0603 86.447 52.1779 84.0717 52.4917C82.6824 52.6709 81.8309 53.388 81.1586 54.374Z" fill="#C37215"/>
<path fill-rule="evenodd" clip-rule="evenodd" d="M111.321 67.5501C109.662 67.5053 107.78 67.6397 106.256 67.4604C106.436 66.5641 106.436 65.4437 106.57 64.5473C106.077 65.0403 105.718 65.7574 105.091 66.34C103.029 68.2223 98.4132 68.6257 96.1276 66.7434C93.6626 64.6818 94.066 59.7519 96.1276 57.6455C98.5029 55.1805 102.985 54.5531 107.601 55.0461C108.049 53.1637 106.794 51.9985 105.225 51.7744C102.94 51.4607 99.8922 52.4467 98.5477 53.2534C98.8166 51.64 98.9062 49.8921 99.22 48.2787C100.833 47.696 102.357 47.2479 104.284 47.1582C109.618 46.7997 113.293 48.5924 113.651 53.1637C113.83 55.5839 113.113 58.0936 112.575 60.4689C112.083 62.7994 111.724 65.1748 111.321 67.5501ZM104.912 58.5866C102.985 58.6314 100.878 59.2589 100.43 60.693C100.071 61.9479 100.968 63.1132 101.909 63.2924C104.867 63.9199 106.884 61.0068 107.108 58.6763C106.436 58.5418 105.45 58.5866 104.912 58.5866Z" fill="#C37215"/>
<path fill-rule="evenodd" clip-rule="evenodd" d="M130.861 48.2786C130.548 49.892 129.965 51.2365 129.651 52.85C128.083 52.3122 126.2 51.5055 123.735 51.7744C122.749 51.9088 121.763 52.4018 121.763 53.3878C121.808 54.5978 123.646 55.046 124.766 55.4942C126.335 56.1664 128.217 57.0628 128.979 58.4073C130.279 60.7378 128.979 64.1439 127.59 65.5781C126.424 66.7881 124.228 67.7741 121.988 67.9534C119.074 68.1775 116.027 67.6396 113.517 66.9674C113.876 65.3092 114.279 63.7854 114.727 62.2616C116.385 62.9338 118.268 63.5613 120.822 63.3372C122.032 63.2027 123.377 62.7994 123.198 61.3652C123.063 60.2 121.315 59.7966 120.016 59.2588C117.595 58.2728 115.803 57.018 115.803 53.7463C115.803 47.0237 125.125 45.9033 130.861 48.2786Z" fill="#C37215"/>
<path fill-rule="evenodd" clip-rule="evenodd" d="M146.726 48.279C146.368 49.8476 145.875 51.3266 145.427 52.8504C143.948 52.2677 142.021 51.5059 139.556 51.7748C138.57 51.8644 137.584 52.3574 137.584 53.3882C137.629 54.6431 139.869 55.3153 140.9 55.7635C143.007 56.6598 145.023 57.6458 145.292 60.0659C145.561 62.4413 144.575 64.3684 143.186 65.6681C141.886 66.923 139.959 67.7745 137.808 67.9538C134.85 68.1779 131.982 67.6401 129.337 66.9678C129.606 65.2647 130.144 63.8754 130.458 62.262C131.668 62.6205 132.833 63.2032 134.267 63.3376C136.284 63.5169 139.018 63.3824 138.973 61.6346C138.928 59.7522 135.029 59.3489 133.505 58.1388C131.847 56.8391 130.816 53.6571 132.116 51.0577C134.267 47.0241 141.662 46.1278 146.726 48.279Z" fill="#C37215"/>
<path d="M149.102 50.3401H148.295L148.34 50.0264H150.312L150.267 50.3401H149.46L149.012 52.805H148.654L149.102 50.3401Z" fill="#C37215"/>
<path d="M152.418 52.805L152.597 51.3261C152.642 51.0572 152.687 50.6538 152.732 50.3849C152.597 50.6538 152.463 51.0123 152.284 51.2813L151.477 52.805H151.208L150.984 51.3261C150.939 51.0124 150.894 50.6986 150.894 50.3849C150.85 50.6538 150.76 51.0572 150.67 51.3261L150.312 52.805H149.998L150.715 50.0264H151.163L151.387 51.595C151.432 51.8191 151.432 52.088 151.432 52.312C151.522 52.088 151.656 51.8639 151.746 51.6398L152.597 50.0264H153.046L152.687 52.805H152.418Z" fill="#C37215"/>
</svg>
