<svg width="256" height="166" viewBox="0 0 256 166" fill="none" xmlns="http://www.w3.org/2000/svg">
<g opacity="0.4">
<path fill-rule="evenodd" clip-rule="evenodd" d="M44.1463 75.5059C43.7618 76.4671 43.5695 77.4925 43.3132 78.5178C42.6723 81.5938 42.1597 84.8621 41.4547 87.9381C40.0449 87.9381 38.571 87.9381 37.1611 87.9381C38.7632 77.5566 41.7111 67.4313 42.9927 56.2807C44.4026 56.2807 45.8124 56.2807 47.1582 56.2807C46.9659 57.3061 46.7096 58.2673 46.5814 59.2927C46.5814 59.3568 46.4533 59.4209 46.4533 59.549C48.3758 57.0498 51.3236 55.3195 56.0018 55.8322C60.6158 56.2808 63.1151 59.9335 63.3073 64.2271C63.7559 72.4299 59.3982 79.8636 50.4265 79.2227C47.4786 79.0305 45.2357 77.9411 44.1463 75.5059ZM50.1701 59.9335C46.3892 61.856 42.7364 70.6996 47.03 74.4805C49.8497 76.9798 54.2715 75.634 56.1299 73.327C58.2447 70.6996 60.1672 63.1377 56.963 60.4462C55.8736 59.549 54.1433 59.2286 52.5412 59.4209C51.3877 59.4849 50.811 59.6131 50.1701 59.9335Z" fill="#1A1A1A"/>
<path fill-rule="evenodd" clip-rule="evenodd" d="M83.1091 78.7743C81.7633 78.7743 80.4175 78.7743 79.0077 78.7743C79.1999 77.4926 79.4563 76.275 79.7126 75.0574C78.495 76.8517 76.3803 78.9024 73.3042 79.2228C68.8825 79.6714 64.8452 77.4285 64.4607 73.7757C64.3325 72.5581 64.3966 70.5715 65.4219 69.0335C67.9853 64.9963 74.65 64.7399 81.2506 64.9322C83.2372 57.6266 72.5993 58.716 68.9465 61.0871C69.1388 59.6773 69.4592 58.3315 69.6515 56.9217C76.2521 54.871 85.1597 55.3837 85.6724 62.497C85.8647 65.3167 85.0316 68.0723 84.5189 70.7638C84.0062 73.3912 83.4936 75.9546 83.1091 78.7743ZM69.1388 72.9426C69.267 74.8011 71.3176 75.8264 72.9838 75.8264C77.5338 75.8905 79.7126 71.9173 80.4175 68.0082C75.2908 67.7519 68.8184 68.3927 69.1388 72.9426Z" fill="#1A1A1A"/>
<path fill-rule="evenodd" clip-rule="evenodd" d="M92.9781 56.3447C93.9393 62.3045 95.0928 68.0721 95.99 74.16C99.3865 68.3284 102.527 62.2404 105.859 56.3447C107.397 56.3447 108.935 56.3447 110.537 56.3447C106.436 63.7784 101.629 71.9171 97.0154 79.7353C95.6055 82.1705 94.1957 85.4388 92.145 87.0408C90.3506 88.4507 86.8901 88.7711 84.0063 88.1943C84.0704 86.9127 84.519 85.9514 84.5831 84.7338C85.1599 84.6697 85.8648 85.0542 86.5697 85.0542C89.7098 85.0542 91.4401 82.1705 92.5936 79.9275C91.2478 72.1734 89.7739 64.4834 88.4281 56.6651C88.3 56.537 88.364 56.4729 88.4281 56.3447C89.9661 56.3447 91.5041 56.3447 92.9781 56.3447Z" fill="#1A1A1A"/>
<path fill-rule="evenodd" clip-rule="evenodd" d="M112.395 91.9112C111.434 97.3583 110.216 102.485 109.255 107.932C106.243 107.932 103.231 107.932 100.155 107.932C101.565 101.267 102.783 94.6668 104.128 88.0662C105.474 81.5296 107.076 74.9931 107.845 68.072C110.281 67.8798 113.549 67.8798 115.984 68.072C115.92 69.6101 115.535 70.8917 115.407 72.3657C117.778 69.9946 120.342 66.8545 125.789 67.3671C130.98 67.8798 133.863 72.2375 134.248 77.7487C134.953 87.2331 130.339 96.5252 122.008 97.1661C116.817 97.5506 114.382 95.1795 112.395 91.9112ZM116.048 77.7487C113.933 80.7606 113.228 86.5282 115.92 88.7711C117.586 90.1809 120.662 89.476 122.072 88.3225C123.866 86.8486 125.148 84.0289 125.084 80.5043C125.02 77.3001 123.61 74.6086 120.213 75.0572C118.227 75.3135 117.009 76.3389 116.048 77.7487Z" fill="#1A1A1A"/>
<path fill-rule="evenodd" clip-rule="evenodd" d="M159.176 96.5894C156.805 96.5253 154.114 96.7175 151.935 96.4612C152.191 95.1795 152.191 93.5774 152.384 92.2957C151.679 93.0007 151.166 94.026 150.269 94.8591C147.321 97.5506 140.72 98.1274 137.452 95.4358C133.927 92.488 134.504 85.4388 137.452 82.4268C140.848 78.9022 147.257 78.0051 153.857 78.71C154.498 76.0185 152.704 74.3523 150.461 74.0319C147.193 73.5833 142.835 74.9931 140.913 76.1466C141.297 73.8396 141.425 71.3404 141.874 69.0333C144.181 68.2003 146.36 67.5594 149.115 67.4312C156.741 66.9186 161.996 69.4819 162.509 76.0185C162.765 79.479 161.74 83.0677 160.971 86.4641C160.266 89.7965 159.753 93.1929 159.176 96.5894ZM150.012 83.7726C147.257 83.8367 144.245 84.7339 143.604 86.7845C143.091 88.5789 144.373 90.2451 145.719 90.5014C149.948 91.3986 152.832 87.2331 153.153 83.9008C152.191 83.7085 150.781 83.7726 150.012 83.7726Z" fill="#1A1A1A"/>
<path fill-rule="evenodd" clip-rule="evenodd" d="M187.117 69.0334C186.669 71.3404 185.836 73.2629 185.387 75.5699C183.144 74.8009 180.453 73.6474 176.928 74.0319C175.518 74.2242 174.108 74.9291 174.108 76.339C174.172 78.0692 176.8 78.7101 178.402 79.3509C180.645 80.3122 183.336 81.5938 184.426 83.5163C186.284 86.8487 184.426 91.7191 182.439 93.7697C180.773 95.5 177.633 96.9098 174.429 97.1662C170.263 97.4866 165.906 96.7176 162.317 95.7563C162.83 93.3852 163.406 91.2064 164.047 89.0275C166.418 89.9888 169.11 90.886 172.763 90.5655C174.493 90.3733 176.415 89.7965 176.159 87.7459C175.967 86.0797 173.467 85.5029 171.609 84.7339C168.149 83.3241 165.585 81.5297 165.585 76.8516C165.585 67.2391 178.915 65.637 187.117 69.0334Z" fill="#1A1A1A"/>
<path fill-rule="evenodd" clip-rule="evenodd" d="M209.803 69.0335C209.29 71.2765 208.585 73.3912 207.945 75.5701C205.83 74.737 203.074 73.6476 199.55 74.0321C198.14 74.1602 196.73 74.8652 196.73 76.3391C196.794 78.1334 199.998 79.0947 201.472 79.7355C204.484 81.0172 207.368 82.427 207.752 85.8876C208.137 89.284 206.727 92.0396 204.74 93.898C202.882 95.6924 200.126 96.91 197.05 97.1663C192.821 97.4867 188.719 96.7177 184.938 95.7565C185.323 93.3213 186.092 91.3347 186.541 89.0277C188.271 89.5403 189.937 90.3734 191.988 90.5657C194.871 90.822 198.781 90.6298 198.716 88.1305C198.652 85.439 193.077 84.8622 190.898 83.132C188.527 81.2735 187.053 76.7236 188.912 73.0067C191.988 67.2392 202.562 65.9575 209.803 69.0335Z" fill="#1A1A1A"/>
<path d="M213.199 71.9813H212.046L212.11 71.5327H214.93L214.866 71.9813H213.712L213.071 75.5059H212.559L213.199 71.9813Z" fill="#1A1A1A"/>
<path d="M217.941 75.5059L218.198 73.3911C218.262 73.0066 218.326 72.4299 218.39 72.0454C218.198 72.4299 218.006 72.9426 217.749 73.3271L216.596 75.5059H216.211L215.891 73.3911C215.827 72.9426 215.763 72.494 215.763 72.0454C215.699 72.4299 215.57 73.0066 215.442 73.3911L214.93 75.5059H214.481L215.506 71.5327H216.147L216.468 73.7756C216.532 74.0961 216.532 74.4806 216.532 74.801C216.66 74.4806 216.852 74.1602 216.98 73.8397L218.198 71.5327H218.839L218.326 75.5059H217.941Z" fill="#1A1A1A"/>
</g>
</svg>
