<svg width="136" height="136" viewBox="0 0 136 136" fill="none" xmlns="http://www.w3.org/2000/svg">
<g filter="url(#filter0_d_1795_2804)">
<rect x="28" y="24" width="80" height="80" rx="40" fill="#D62D88" shape-rendering="crispEdges"/>
<g clip-path="url(#clip0_1795_2804)">
<path d="M67.0589 58.6041L64.2972 55.8324C64.0327 55.568 63.9005 55.2568 63.9005 54.8991C63.9005 54.5413 64.0355 54.2268 64.3055 53.9557L67.0672 51.1857C67.3305 50.9213 67.6427 50.7891 68.0039 50.7891C68.365 50.7891 68.6816 50.9241 68.9539 51.1941L71.7139 53.9641C71.9783 54.2285 72.1105 54.5396 72.1105 54.8974C72.1105 55.2552 71.9755 55.5696 71.7055 55.8407L68.9439 58.6107C68.6805 58.8752 68.3683 59.0074 68.0072 59.0074C67.6461 59.0074 67.3294 58.873 67.0572 58.6041M52.7139 77.5591C52.3327 77.5591 52.0133 77.4302 51.7555 77.1724C51.4966 76.9135 51.3672 76.5935 51.3672 76.2124V71.7241C51.3672 71.0574 51.5872 70.4852 52.0272 70.0074C52.4661 69.5285 53.005 69.2674 53.6439 69.2241H58.4605C58.9094 69.2241 59.3355 69.3313 59.7389 69.5457C60.1433 69.7591 60.4766 70.0702 60.7389 70.4791C61.5877 71.668 62.645 72.5902 63.9105 73.2457C65.1772 73.8991 66.5411 74.2257 68.0022 74.2257C69.4733 74.2257 70.8461 73.8985 72.1205 73.2441C73.3961 72.5907 74.455 71.6685 75.2972 70.4774C75.5727 70.0696 75.9089 69.7591 76.3055 69.5457C76.7011 69.3324 77.1139 69.2257 77.5439 69.2257H82.3605C83.0061 69.268 83.5522 69.5285 83.9989 70.0074C84.4455 70.4852 84.6689 71.0574 84.6689 71.7241V76.2124C84.6689 76.5935 84.54 76.9135 84.2822 77.1724C84.0233 77.4302 83.7033 77.5591 83.3222 77.5591H76.0155C75.6333 77.5591 75.3133 77.4302 75.0555 77.1724C74.7966 76.9135 74.6672 76.5935 74.6672 76.2124V73.5107C73.7372 74.2696 72.7022 74.8563 71.5622 75.2707C70.4222 75.6852 69.2322 75.8924 67.9922 75.8924C66.7811 75.8924 65.6144 75.688 64.4922 75.2791C63.3677 74.8713 62.3255 74.2891 61.3655 73.5324V76.2124C61.3655 76.5935 61.2366 76.9135 60.9789 77.1724C60.7211 77.4313 60.4011 77.5602 60.0189 77.5591H52.7139ZM55.6339 66.2757C54.4994 66.2757 53.5205 65.8646 52.6972 65.0424C51.875 64.2202 51.4639 63.2413 51.4639 62.1057C51.4639 60.948 51.875 59.9646 52.6972 59.1557C53.5194 58.348 54.4983 57.9441 55.6339 57.9441C56.7916 57.9441 57.775 58.348 58.5839 59.1557C59.3927 59.9646 59.7972 60.948 59.7972 62.1057C59.7972 63.2413 59.3927 64.2202 58.5839 65.0424C57.775 65.8646 56.7916 66.2757 55.6339 66.2757ZM80.3772 66.2757C79.2427 66.2757 78.2644 65.8646 77.4422 65.0424C76.6189 64.2202 76.2072 63.2413 76.2072 62.1057C76.2072 60.948 76.6183 59.9646 77.4405 59.1557C78.2627 58.348 79.2416 57.9441 80.3772 57.9441C81.535 57.9441 82.5183 58.348 83.3272 59.1557C84.1361 59.9646 84.5405 60.948 84.5405 62.1057C84.5405 63.2413 84.1361 64.2202 83.3272 65.0424C82.5183 65.8646 81.535 66.2757 80.3772 66.2757Z" fill="white"/>
</g>
</g>
<defs>
<filter id="filter0_d_1795_2804" x="0" y="0" width="136" height="136" filterUnits="userSpaceOnUse" color-interpolation-filters="sRGB">
<feFlood flood-opacity="0" result="BackgroundImageFix"/>
<feColorMatrix in="SourceAlpha" type="matrix" values="0 0 0 0 0 0 0 0 0 0 0 0 0 0 0 0 0 0 127 0" result="hardAlpha"/>
<feOffset dy="4"/>
<feGaussianBlur stdDeviation="14"/>
<feComposite in2="hardAlpha" operator="out"/>
<feColorMatrix type="matrix" values="0 0 0 0 0 0 0 0 0 0 0 0 0 0 0 0 0 0 0.05 0"/>
<feBlend mode="normal" in2="BackgroundImageFix" result="effect1_dropShadow_1795_2804"/>
<feBlend mode="normal" in="SourceGraphic" in2="effect1_dropShadow_1795_2804" result="shape"/>
</filter>
<clipPath id="clip0_1795_2804">
<rect width="40" height="40" fill="white" transform="translate(48 44)"/>
</clipPath>
</defs>
</svg>
