<svg width="29" height="29" viewBox="0 0 29 29" fill="none" xmlns="http://www.w3.org/2000/svg">
<path d="M1.08398 16C4.05581 16.3532 6.8224 17.6959 8.93858 19.8121C11.0548 21.9283 12.3975 24.6948 12.7507 27.6667C14.2239 26.8173 15.4561 25.6064 16.331 24.1482C17.2059 22.6901 17.6945 21.0329 17.7507 19.3333C20.5492 18.3489 22.9929 16.5567 24.7729 14.1834C26.5529 11.81 27.5891 8.96223 27.7507 6C27.7507 4.67392 27.2239 3.40215 26.2862 2.46447C25.3485 1.52678 24.0767 1 22.7507 1C19.7884 1.16151 16.9406 2.19778 14.5673 3.97775C12.194 5.75773 10.4018 8.20148 9.41732 11C7.71776 11.0561 6.06058 11.5447 4.60242 12.4196C3.14427 13.2945 1.9333 14.5268 1.08398 16Z" fill="#E949A3" stroke="white" stroke-width="2" stroke-linecap="round" stroke-linejoin="round"/>
<path d="M6.08381 17.6666C4.34919 18.6459 2.94657 20.1209 2.05574 21.9026C1.16491 23.6842 0.826468 25.6914 1.08381 27.6666C3.05907 27.924 5.06619 27.5855 6.84785 26.6947C8.62951 25.8039 10.1045 24.4012 11.0838 22.6666M17.7505 9.33329C17.7505 9.77532 17.9261 10.1992 18.2386 10.5118C18.5512 10.8244 18.9751 11 19.4171 11C19.8592 11 20.2831 10.8244 20.5957 10.5118C20.9082 10.1992 21.0838 9.77532 21.0838 9.33329C21.0838 8.89127 20.9082 8.46734 20.5957 8.15478C20.2831 7.84222 19.8592 7.66663 19.4171 7.66663C18.9751 7.66663 18.5512 7.84222 18.2386 8.15478C17.9261 8.46734 17.7505 8.89127 17.7505 9.33329Z" fill="#E949A3"/>
<path d="M6.08381 17.6666C4.34919 18.6459 2.94657 20.1209 2.05574 21.9026C1.16491 23.6842 0.826468 25.6914 1.08381 27.6666C3.05907 27.924 5.06619 27.5855 6.84785 26.6947C8.62951 25.8039 10.1045 24.4012 11.0838 22.6666M17.7505 9.33329C17.7505 9.77532 17.9261 10.1992 18.2386 10.5118C18.5512 10.8244 18.9751 11 19.4171 11C19.8592 11 20.2831 10.8244 20.5957 10.5118C20.9082 10.1992 21.0838 9.77532 21.0838 9.33329C21.0838 8.89127 20.9082 8.46734 20.5957 8.15478C20.2831 7.84222 19.8592 7.66663 19.4171 7.66663C18.9751 7.66663 18.5512 7.84222 18.2386 8.15478C17.9261 8.46734 17.7505 8.89127 17.7505 9.33329Z" stroke="white" stroke-width="2" stroke-linecap="round" stroke-linejoin="round"/>
</svg>
