<svg width="80" height="80" viewBox="0 0 80 80" fill="none" xmlns="http://www.w3.org/2000/svg">
<circle cx="40" cy="40" r="37.5" fill="#EB3F2B" stroke="#F88681" stroke-width="5"/>
<path d="M21.004 40.234C20.008 40.234 19.09 40.024 18.25 39.604C17.422 39.172 16.732 38.476 16.18 37.516L18.358 36.13C18.682 36.778 19.09 37.252 19.582 37.552C20.074 37.84 20.596 37.984 21.148 37.984C21.736 37.984 22.198 37.852 22.534 37.588C22.87 37.324 23.038 36.976 23.038 36.544C23.038 36.124 22.906 35.788 22.642 35.536C22.378 35.284 22.024 35.08 21.58 34.924C21.148 34.768 20.674 34.624 20.158 34.492C19.186 34.24 18.412 33.826 17.836 33.25C17.26 32.662 16.972 31.894 16.972 30.946C16.972 30.19 17.158 29.53 17.53 28.966C17.902 28.402 18.418 27.964 19.078 27.652C19.75 27.34 20.53 27.184 21.418 27.184C22.402 27.184 23.224 27.388 23.884 27.796C24.544 28.204 25.108 28.78 25.576 29.524L23.416 30.856C23.116 30.364 22.804 30.004 22.48 29.776C22.156 29.548 21.76 29.434 21.292 29.434C20.788 29.434 20.368 29.56 20.032 29.812C19.708 30.064 19.546 30.4 19.546 30.82C19.546 31.288 19.738 31.63 20.122 31.846C20.518 32.05 20.992 32.236 21.544 32.404C21.916 32.524 22.33 32.668 22.786 32.836C23.254 32.992 23.704 33.214 24.136 33.502C24.568 33.778 24.922 34.15 25.198 34.618C25.474 35.086 25.612 35.68 25.612 36.4C25.612 37.156 25.426 37.822 25.054 38.398C24.682 38.974 24.154 39.424 23.47 39.748C22.786 40.072 21.964 40.234 21.004 40.234ZM26.542 40V27.4H31.042C32.494 27.4 33.694 27.676 34.642 28.228C35.602 28.78 36.316 29.53 36.784 30.478C37.264 31.426 37.504 32.506 37.504 33.718C37.504 34.918 37.264 35.992 36.784 36.94C36.316 37.888 35.602 38.638 34.642 39.19C33.694 39.73 32.494 40 31.042 40H26.542ZM30.736 29.668H29.062V37.732H30.736C31.732 37.732 32.536 37.558 33.148 37.21C33.76 36.85 34.204 36.37 34.48 35.77C34.756 35.158 34.894 34.474 34.894 33.718C34.894 32.95 34.756 32.266 34.48 31.666C34.204 31.054 33.76 30.568 33.148 30.208C32.536 29.848 31.732 29.668 30.736 29.668ZM44.6066 40.234C43.6706 40.234 42.8006 40.066 41.9966 39.73C41.2046 39.394 40.5086 38.926 39.9086 38.326C39.3206 37.726 38.8586 37.036 38.5226 36.256C38.1986 35.464 38.0366 34.618 38.0366 33.718C38.0366 32.818 38.1986 31.972 38.5226 31.18C38.8586 30.388 39.3206 29.692 39.9086 29.092C40.5086 28.492 41.2046 28.024 41.9966 27.688C42.8006 27.34 43.6706 27.166 44.6066 27.166C45.6746 27.166 46.5806 27.34 47.3246 27.688C48.0806 28.024 48.7166 28.51 49.2326 29.146L47.4326 30.694C47.0966 30.322 46.6886 30.034 46.2086 29.83C45.7286 29.614 45.1946 29.506 44.6066 29.506C43.8026 29.506 43.1006 29.698 42.5006 30.082C41.9126 30.466 41.4566 30.976 41.1326 31.612C40.8086 32.248 40.6466 32.95 40.6466 33.718C40.6466 34.486 40.8086 35.188 41.1326 35.824C41.4566 36.46 41.9126 36.97 42.5006 37.354C43.1006 37.738 43.8026 37.93 44.6066 37.93C45.6026 37.93 46.4066 37.696 47.0186 37.228C47.6306 36.748 48.0086 36.016 48.1526 35.032L44.0126 35.068V32.8H50.5826C50.6066 32.992 50.6246 33.226 50.6366 33.502C50.6606 33.766 50.6726 34 50.6726 34.204C50.6726 35.368 50.4266 36.406 49.9346 37.318C49.4546 38.218 48.7586 38.932 47.8466 39.46C46.9466 39.976 45.8666 40.234 44.6066 40.234ZM57.2334 40.234C56.5374 40.234 55.8774 40.168 55.2534 40.036C54.6294 39.904 53.9694 39.646 53.2734 39.262L54.1914 37.066C54.5874 37.294 55.0254 37.492 55.5054 37.66C55.9854 37.816 56.5014 37.894 57.0534 37.894C57.8814 37.894 58.4934 37.714 58.8894 37.354C59.2974 36.994 59.5014 36.514 59.5014 35.914C59.5014 35.314 59.3034 34.822 58.9074 34.438C58.5114 34.042 57.8334 33.844 56.8734 33.844C56.3574 33.844 55.8594 33.916 55.3794 34.06C54.9114 34.192 54.4374 34.384 53.9574 34.636L55.1274 27.4H61.1034V29.614H57.0894L56.7474 31.846C56.9274 31.786 57.1014 31.75 57.2694 31.738C57.4494 31.726 57.6294 31.72 57.8094 31.72C58.8174 31.72 59.6334 31.918 60.2574 32.314C60.8934 32.71 61.3614 33.226 61.6614 33.862C61.9614 34.498 62.1114 35.182 62.1114 35.914C62.1114 36.742 61.9074 37.486 61.4994 38.146C61.0914 38.794 60.5214 39.304 59.7894 39.676C59.0574 40.048 58.2054 40.234 57.2334 40.234Z" fill="white"/>
<path d="M44.2168 49.1057H47.6754V52.5643M47.6741 49.1057L43.6151 53.1634L47.6741 49.1057ZM40.7596 60.0381V65.2414V60.0381ZM38.453 62.9361H43.0648H38.453ZM36.7417 56.0203C36.7417 56.5479 36.8456 57.0704 37.0475 57.5579C37.2495 58.0453 37.5454 58.4882 37.9185 58.8613C38.2916 59.2344 38.7345 59.5304 39.222 59.7323C39.7095 59.9342 40.2319 60.0381 40.7596 60.0381C41.2872 60.0381 41.8097 59.9342 42.2971 59.7323C42.7846 59.5304 43.2275 59.2344 43.6006 58.8613C43.9737 58.4882 44.2697 58.0453 44.4716 57.5579C44.6735 57.0704 44.7774 56.5479 44.7774 56.0203C44.7774 55.4927 44.6735 54.9702 44.4716 54.4827C44.2697 53.9952 43.9737 53.5523 43.6006 53.1792C43.2275 52.8061 42.7846 52.5102 42.2971 52.3083C41.8097 52.1064 41.2872 52.0024 40.7596 52.0024C40.2319 52.0024 39.7095 52.1064 39.222 52.3083C38.7345 52.5102 38.2916 52.8061 37.9185 53.1792C37.5454 53.5523 37.2495 53.9952 37.0475 54.4827C36.8456 54.9702 36.7417 55.4927 36.7417 56.0203ZM39.3273 54.9467H42.1906H39.3273ZM39.3273 57.0939H42.1906H39.3273Z" fill="white"/>
<path d="M44.2168 49.1057H47.6754V52.5643M47.6741 49.1057L43.6151 53.1634M40.7596 60.0381V65.2414M40.7596 60.0381C40.2319 60.0381 39.7095 59.9342 39.222 59.7323C38.7345 59.5304 38.2916 59.2344 37.9185 58.8613C37.5454 58.4882 37.2495 58.0453 37.0475 57.5579C36.8456 57.0704 36.7417 56.5479 36.7417 56.0203C36.7417 55.4927 36.8456 54.9702 37.0475 54.4827C37.2495 53.9952 37.5454 53.5523 37.9185 53.1792C38.2916 52.8061 38.7345 52.5102 39.222 52.3083C39.7095 52.1064 40.2319 52.0024 40.7596 52.0024C41.2872 52.0024 41.8097 52.1064 42.2971 52.3083C42.7846 52.5102 43.2275 52.8061 43.6006 53.1792C43.9737 53.5523 44.2697 53.9952 44.4716 54.4827C44.6735 54.9702 44.7774 55.4927 44.7774 56.0203C44.7774 56.5479 44.6735 57.0704 44.4716 57.5579C44.2697 58.0453 43.9737 58.4882 43.6006 58.8613C43.2275 59.2344 42.7846 59.5304 42.2971 59.7323C41.8097 59.9342 41.2872 60.0381 40.7596 60.0381ZM38.453 62.9361H43.0648M39.3273 54.9467H42.1906M39.3273 57.0939H42.1906" stroke="black" stroke-linecap="round" stroke-linejoin="round"/>
</svg>
