<svg width="80" height="80" viewBox="0 0 80 80" fill="none" xmlns="http://www.w3.org/2000/svg">
<circle cx="40" cy="40" r="37.5" fill="#060000" stroke="#666666" stroke-width="5"/>
<path d="M21.004 40.234C20.008 40.234 19.09 40.024 18.25 39.604C17.422 39.172 16.732 38.476 16.18 37.516L18.358 36.13C18.682 36.778 19.09 37.252 19.582 37.552C20.074 37.84 20.596 37.984 21.148 37.984C21.736 37.984 22.198 37.852 22.534 37.588C22.87 37.324 23.038 36.976 23.038 36.544C23.038 36.124 22.906 35.788 22.642 35.536C22.378 35.284 22.024 35.08 21.58 34.924C21.148 34.768 20.674 34.624 20.158 34.492C19.186 34.24 18.412 33.826 17.836 33.25C17.26 32.662 16.972 31.894 16.972 30.946C16.972 30.19 17.158 29.53 17.53 28.966C17.902 28.402 18.418 27.964 19.078 27.652C19.75 27.34 20.53 27.184 21.418 27.184C22.402 27.184 23.224 27.388 23.884 27.796C24.544 28.204 25.108 28.78 25.576 29.524L23.416 30.856C23.116 30.364 22.804 30.004 22.48 29.776C22.156 29.548 21.76 29.434 21.292 29.434C20.788 29.434 20.368 29.56 20.032 29.812C19.708 30.064 19.546 30.4 19.546 30.82C19.546 31.288 19.738 31.63 20.122 31.846C20.518 32.05 20.992 32.236 21.544 32.404C21.916 32.524 22.33 32.668 22.786 32.836C23.254 32.992 23.704 33.214 24.136 33.502C24.568 33.778 24.922 34.15 25.198 34.618C25.474 35.086 25.612 35.68 25.612 36.4C25.612 37.156 25.426 37.822 25.054 38.398C24.682 38.974 24.154 39.424 23.47 39.748C22.786 40.072 21.964 40.234 21.004 40.234ZM26.542 40V27.4H31.042C32.494 27.4 33.694 27.676 34.642 28.228C35.602 28.78 36.316 29.53 36.784 30.478C37.264 31.426 37.504 32.506 37.504 33.718C37.504 34.918 37.264 35.992 36.784 36.94C36.316 37.888 35.602 38.638 34.642 39.19C33.694 39.73 32.494 40 31.042 40H26.542ZM30.736 29.668H29.062V37.732H30.736C31.732 37.732 32.536 37.558 33.148 37.21C33.76 36.85 34.204 36.37 34.48 35.77C34.756 35.158 34.894 34.474 34.894 33.718C34.894 32.95 34.756 32.266 34.48 31.666C34.204 31.054 33.76 30.568 33.148 30.208C32.536 29.848 31.732 29.668 30.736 29.668ZM44.6066 40.234C43.6706 40.234 42.8006 40.066 41.9966 39.73C41.2046 39.394 40.5086 38.926 39.9086 38.326C39.3206 37.726 38.8586 37.036 38.5226 36.256C38.1986 35.464 38.0366 34.618 38.0366 33.718C38.0366 32.818 38.1986 31.972 38.5226 31.18C38.8586 30.388 39.3206 29.692 39.9086 29.092C40.5086 28.492 41.2046 28.024 41.9966 27.688C42.8006 27.34 43.6706 27.166 44.6066 27.166C45.6746 27.166 46.5806 27.34 47.3246 27.688C48.0806 28.024 48.7166 28.51 49.2326 29.146L47.4326 30.694C47.0966 30.322 46.6886 30.034 46.2086 29.83C45.7286 29.614 45.1946 29.506 44.6066 29.506C43.8026 29.506 43.1006 29.698 42.5006 30.082C41.9126 30.466 41.4566 30.976 41.1326 31.612C40.8086 32.248 40.6466 32.95 40.6466 33.718C40.6466 34.486 40.8086 35.188 41.1326 35.824C41.4566 36.46 41.9126 36.97 42.5006 37.354C43.1006 37.738 43.8026 37.93 44.6066 37.93C45.6026 37.93 46.4066 37.696 47.0186 37.228C47.6306 36.748 48.0086 36.016 48.1526 35.032L44.0126 35.068V32.8H50.5826C50.6066 32.992 50.6246 33.226 50.6366 33.502C50.6606 33.766 50.6726 34 50.6726 34.204C50.6726 35.368 50.4266 36.406 49.9346 37.318C49.4546 38.218 48.7586 38.932 47.8466 39.46C46.9466 39.976 45.8666 40.234 44.6066 40.234ZM57.7914 40.234C56.8914 40.234 56.1114 40.078 55.4514 39.766C54.8034 39.442 54.3054 39.004 53.9574 38.452C53.6094 37.9 53.4354 37.288 53.4354 36.616C53.4354 35.824 53.6094 35.17 53.9574 34.654C54.3054 34.126 54.7434 33.724 55.2714 33.448C54.8034 33.172 54.4374 32.806 54.1734 32.35C53.9214 31.894 53.7954 31.36 53.7954 30.748C53.7954 30.064 53.9454 29.452 54.2454 28.912C54.5574 28.372 55.0074 27.946 55.5954 27.634C56.1954 27.322 56.9274 27.166 57.7914 27.166C58.6674 27.166 59.3994 27.322 59.9874 27.634C60.5754 27.946 61.0194 28.372 61.3194 28.912C61.6314 29.452 61.7874 30.064 61.7874 30.748C61.7874 31.972 61.2954 32.872 60.3114 33.448C60.8394 33.736 61.2774 34.138 61.6254 34.654C61.9734 35.17 62.1474 35.824 62.1474 36.616C62.1474 37.288 61.9734 37.9 61.6254 38.452C61.2774 39.004 60.7794 39.442 60.1314 39.766C59.4834 40.078 58.7034 40.234 57.7914 40.234ZM57.7914 32.476C58.2594 32.476 58.6374 32.326 58.9254 32.026C59.2254 31.714 59.3814 31.324 59.3934 30.856C59.4054 30.424 59.2614 30.064 58.9614 29.776C58.6734 29.476 58.2834 29.326 57.7914 29.326C57.3234 29.326 56.9394 29.476 56.6394 29.776C56.3514 30.064 56.2074 30.424 56.2074 30.856C56.2074 31.324 56.3514 31.714 56.6394 32.026C56.9394 32.326 57.3234 32.476 57.7914 32.476ZM57.7914 38.074C58.3314 38.074 58.7754 37.9 59.1234 37.552C59.4834 37.192 59.6634 36.772 59.6634 36.292C59.6634 35.764 59.4834 35.332 59.1234 34.996C58.7754 34.648 58.3314 34.474 57.7914 34.474C57.2514 34.474 56.8014 34.648 56.4414 34.996C56.0934 35.332 55.9194 35.764 55.9194 36.292C55.9194 36.772 56.0934 37.192 56.4414 37.552C56.8014 37.9 57.2514 38.074 57.7914 38.074Z" fill="white"/>
<path d="M32.5 66V51.7895H37.9V48H45.1V51.7895H50.5V66H32.5ZM34.3 64.1053H48.7V53.6842H34.3V64.1053ZM39.7 51.7895H43.3V49.8947H39.7V51.7895Z" fill="white"/>
</svg>
