<svg width="180" height="116" viewBox="0 0 180 116" fill="none" xmlns="http://www.w3.org/2000/svg">
<path d="M106.923 43.1477C106.923 40.8485 108.728 38.9834 110.951 38.9834C113.177 38.9834 114.981 40.8485 114.981 43.1477C114.981 45.4482 113.177 47.3092 110.951 47.3092C108.728 47.3092 106.923 45.4482 106.923 43.1477Z" fill="#069C94"/>
<path d="M118.503 42.389L126.671 40.8783V73.2877H118.503V42.389Z" fill="#069C94"/>
<path d="M130.434 42.389V73.2877H138.608V40.8783L130.434 42.389Z" fill="#069C94"/>
<path d="M106.867 49.5827V73.2876H115.039V49.5827H106.867Z" fill="#069C94"/>
<path d="M90.87 59.9523C90.87 52.9897 94.7063 49.4868 102.257 49.2352C102.257 49.2352 103.621 49.1811 104.426 49.3583V56.287C99.6393 56.4575 99.1105 58.2441 99.1105 62.4111V73.2877H90.87V59.9523Z" fill="#069C94"/>
<path d="M80.0434 49.6674C79.7508 50.4612 78.4192 54.0735 75.4307 57.8086V40.8783L66.9964 42.6027V73.2877H75.4307V63.8014C77.873 67.5883 79.0797 73.2877 79.0797 73.2877H89.1801C88.1815 68.9949 83.8112 61.0816 83.8112 61.0816C87.7352 55.9395 89.4563 50.4633 89.7312 49.5558H80.0849C80.0747 49.5825 80.0609 49.62 80.0434 49.6674Z" fill="#069C94"/>
<path d="M49.4282 50.4809C49.4282 52.7057 51.8208 52.8666 52.8535 52.9356C60.4278 53.4604 64.942 57.2919 64.942 63.1874C64.942 68.389 60.9055 73.6353 51.9006 73.6353C47.7254 73.6353 44.1627 73.2106 41.0031 72.3518V64.7806C43.113 65.6773 46.5893 66.6186 50.1703 66.6186C53.4385 66.6186 55.3821 65.5015 55.3821 63.6026C55.3821 61.3117 53.025 61.1624 52.1211 61.1052L52.1113 61.1046C41.5633 60.3621 40.4272 53.9135 40.4272 51.176C40.4272 46.4221 43.6915 40.8783 52.9045 40.8783C58.2485 40.8783 61.1293 41.7398 63.6109 42.6365L63.7352 42.6757V50.0291L63.6423 50.0021C62.6463 49.5666 61.4761 49.1392 61.4761 49.1392C59.3741 48.4887 56.4345 47.7962 54.1623 47.7962C52.8705 47.7962 49.4282 47.7962 49.4282 50.4809Z" fill="#069C94"/>
</svg>
