<svg width="136" height="136" viewBox="0 0 136 136" fill="none" xmlns="http://www.w3.org/2000/svg">
<g filter="url(#filter0_d_412_1798)">
<rect x="28" y="24" width="80" height="80" rx="40" fill="#FABFD3" shape-rendering="crispEdges"/>
<path d="M72.9998 47.6667L77.1665 51.8334L81.3332 47.6667M77.1665 52.6667V64.3334M49.6665 82.6667H67.1665L82.9998 77.6667V77.0134C82.9992 76.3334 82.8392 75.663 82.5326 75.056C82.226 74.4491 81.7814 73.9224 81.2344 73.5184C80.6874 73.1144 80.0534 72.8442 79.3831 72.7296C78.7128 72.615 78.025 72.6591 77.3748 72.8584L67.1665 76.0001M67.1665 76.0001H58.8332M67.1665 76.0001V71.0001L56.6832 69.3867C55.9699 69.2769 55.2413 69.3226 54.5474 69.5208C53.8535 69.7189 53.2106 70.0648 52.6628 70.5346C52.1151 71.0045 51.6754 71.5872 51.374 72.2429C51.0726 72.8986 50.9165 73.6118 50.9165 74.3334M69.6665 52.6667H84.6665V64.3334H69.6665V52.6667Z" stroke="#E949A3" stroke-width="1.5"/>
</g>
<defs>
<filter id="filter0_d_412_1798" x="0" y="0" width="136" height="136" filterUnits="userSpaceOnUse" color-interpolation-filters="sRGB">
<feFlood flood-opacity="0" result="BackgroundImageFix"/>
<feColorMatrix in="SourceAlpha" type="matrix" values="0 0 0 0 0 0 0 0 0 0 0 0 0 0 0 0 0 0 127 0" result="hardAlpha"/>
<feOffset dy="4"/>
<feGaussianBlur stdDeviation="14"/>
<feComposite in2="hardAlpha" operator="out"/>
<feColorMatrix type="matrix" values="0 0 0 0 0 0 0 0 0 0 0 0 0 0 0 0 0 0 0.05 0"/>
<feBlend mode="normal" in2="BackgroundImageFix" result="effect1_dropShadow_412_1798"/>
<feBlend mode="normal" in="SourceGraphic" in2="effect1_dropShadow_412_1798" result="shape"/>
</filter>
</defs>
</svg>
