<svg width="136" height="136" viewBox="0 0 136 136" fill="none" xmlns="http://www.w3.org/2000/svg">
<g filter="url(#filter0_d_412_1649)">
<rect x="28" y="24" width="80" height="80" rx="40" fill="#FABFD3" shape-rendering="crispEdges"/>
<g clip-path="url(#clip0_412_1649)">
<path d="M84.1328 57.4375C84.7188 57.763 85.2526 58.1602 85.7344 58.6289C86.2161 59.0977 86.6198 59.6185 86.9453 60.1914C87.2708 60.7643 87.5312 61.3698 87.7266 62.0078C87.9219 62.6458 88.013 63.3099 88 64H85.5C85.5 63.3229 85.3698 62.6784 85.1094 62.0664C84.849 61.4544 84.4909 60.9271 84.0352 60.4844C83.5794 60.0417 83.0456 59.6836 82.4336 59.4102C81.8216 59.1367 81.1771 59 80.5 59C79.8099 59 79.1654 59.1302 78.5664 59.3906C77.9674 59.651 77.4401 60.0091 76.9844 60.4648C76.5286 60.9206 76.1706 61.4544 75.9102 62.0664C75.6497 62.6784 75.513 63.3229 75.5 64C75.5 65.1849 75.2331 66.3112 74.6992 67.3789C74.1654 68.4466 73.4167 69.332 72.4531 70.0352C73.2995 70.4648 74.0612 70.9922 74.7383 71.6172C75.4154 72.2422 76.0013 72.9453 76.4961 73.7266C76.9909 74.5078 77.362 75.3411 77.6094 76.2266C77.8568 77.112 77.987 78.0365 78 79H75.5C75.5 77.9714 75.3047 77.0013 74.9141 76.0898C74.5234 75.1784 73.9831 74.3841 73.293 73.707C72.6029 73.0299 71.8086 72.4961 70.9102 72.1055C70.0117 71.7148 69.0417 71.513 68 71.5C66.9714 71.5 66.0013 71.6953 65.0898 72.0859C64.1784 72.4766 63.3841 73.0169 62.707 73.707C62.0299 74.3971 61.4961 75.1914 61.1055 76.0898C60.7148 76.9883 60.513 77.9583 60.5 79H58C58 78.0495 58.1302 77.1315 58.3906 76.2461C58.651 75.3607 59.0221 74.5273 59.5039 73.7461C59.9857 72.9648 60.5651 72.2617 61.2422 71.6367C61.9193 71.0117 62.6875 70.4779 63.5469 70.0352C62.5964 69.332 61.8542 68.4466 61.3203 67.3789C60.7865 66.3112 60.513 65.1849 60.5 64C60.5 63.3229 60.3698 62.6784 60.1094 62.0664C59.849 61.4544 59.4909 60.9271 59.0352 60.4844C58.5794 60.0417 58.0456 59.6836 57.4336 59.4102C56.8216 59.1367 56.1771 59 55.5 59C54.8099 59 54.1654 59.1302 53.5664 59.3906C52.9674 59.651 52.4401 60.0091 51.9844 60.4648C51.5286 60.9206 51.1706 61.4544 50.9102 62.0664C50.6497 62.6784 50.513 63.3229 50.5 64H48C48 63.3229 48.0911 62.6654 48.2734 62.0273C48.4557 61.3893 48.7096 60.7839 49.0352 60.2109C49.3607 59.638 49.7708 59.1172 50.2656 58.6484C50.7604 58.1797 51.2943 57.776 51.8672 57.4375C51.4375 56.9818 51.1055 56.4544 50.8711 55.8555C50.6367 55.2565 50.513 54.638 50.5 54C50.5 53.3229 50.6302 52.6784 50.8906 52.0664C51.151 51.4544 51.5091 50.9271 51.9648 50.4844C52.4206 50.0417 52.9479 49.6836 53.5469 49.4102C54.1458 49.1367 54.7969 49 55.5 49C56.1771 49 56.8216 49.1302 57.4336 49.3906C58.0456 49.651 58.5729 50.0091 59.0156 50.4648C59.4583 50.9206 59.8164 51.4544 60.0898 52.0664C60.3633 52.6784 60.5 53.3229 60.5 54C60.5 54.638 60.3828 55.2565 60.1484 55.8555C59.9141 56.4544 59.5755 56.9818 59.1328 57.4375C60.2005 58.0234 61.0729 58.8307 61.75 59.8594C62.4531 58.8177 63.3516 57.9974 64.4453 57.3984C65.5391 56.7995 66.724 56.5 68 56.5C69.263 56.5 70.4414 56.7995 71.5352 57.3984C72.6289 57.9974 73.5339 58.8177 74.25 59.8594C74.9271 58.8307 75.7995 58.0234 76.8672 57.4375C76.4375 56.9818 76.1055 56.4544 75.8711 55.8555C75.6367 55.2565 75.513 54.638 75.5 54C75.5 53.3229 75.6302 52.6784 75.8906 52.0664C76.151 51.4544 76.5091 50.9271 76.9648 50.4844C77.4206 50.0417 77.9479 49.6836 78.5469 49.4102C79.1458 49.1367 79.7969 49 80.5 49C81.1771 49 81.8216 49.1302 82.4336 49.3906C83.0456 49.651 83.5729 50.0091 84.0156 50.4648C84.4583 50.9206 84.8164 51.4544 85.0898 52.0664C85.3633 52.6784 85.5 53.3229 85.5 54C85.5 54.638 85.3828 55.2565 85.1484 55.8555C84.9141 56.4544 84.5755 56.9818 84.1328 57.4375ZM53 54C53 54.3516 53.0651 54.6771 53.1953 54.9766C53.3255 55.276 53.5013 55.5365 53.7227 55.7578C53.944 55.9792 54.2109 56.1615 54.5234 56.3047C54.8359 56.4479 55.1615 56.513 55.5 56.5C55.8516 56.5 56.1771 56.4349 56.4766 56.3047C56.776 56.1745 57.0365 55.9987 57.2578 55.7773C57.4792 55.556 57.6615 55.2891 57.8047 54.9766C57.9479 54.6641 58.013 54.3385 58 54C58 53.6484 57.9349 53.3229 57.8047 53.0234C57.6745 52.724 57.4987 52.4635 57.2773 52.2422C57.056 52.0208 56.7891 51.8385 56.4766 51.6953C56.1641 51.5521 55.8385 51.487 55.5 51.5C55.1484 51.5 54.8229 51.5651 54.5234 51.6953C54.224 51.8255 53.9635 52.0013 53.7422 52.2227C53.5208 52.444 53.3385 52.7109 53.1953 53.0234C53.0521 53.3359 52.987 53.6615 53 54ZM68 69C68.6771 69 69.3216 68.8698 69.9336 68.6094C70.5456 68.349 71.0729 67.9909 71.5156 67.5352C71.9583 67.0794 72.3164 66.5521 72.5898 65.9531C72.8633 65.3542 73 64.7031 73 64C73 63.3229 72.8698 62.6784 72.6094 62.0664C72.349 61.4544 71.9909 60.9271 71.5352 60.4844C71.0794 60.0417 70.5456 59.6836 69.9336 59.4102C69.3216 59.1367 68.6771 59 68 59C67.3099 59 66.6654 59.1302 66.0664 59.3906C65.4674 59.651 64.9401 60.0091 64.4844 60.4648C64.0286 60.9206 63.6706 61.4544 63.4102 62.0664C63.1497 62.6784 63.013 63.3229 63 64C63 64.6901 63.1302 65.3346 63.3906 65.9336C63.651 66.5326 64.0091 67.0599 64.4648 67.5156C64.9206 67.9714 65.4479 68.3294 66.0469 68.5898C66.6458 68.8503 67.2969 68.987 68 69ZM78 54C78 54.3516 78.0651 54.6771 78.1953 54.9766C78.3255 55.276 78.5013 55.5365 78.7227 55.7578C78.944 55.9792 79.2109 56.1615 79.5234 56.3047C79.8359 56.4479 80.1615 56.513 80.5 56.5C80.8516 56.5 81.1771 56.4349 81.4766 56.3047C81.776 56.1745 82.0365 55.9987 82.2578 55.7773C82.4792 55.556 82.6615 55.2891 82.8047 54.9766C82.9479 54.6641 83.013 54.3385 83 54C83 53.6484 82.9349 53.3229 82.8047 53.0234C82.6745 52.724 82.4987 52.4635 82.2773 52.2422C82.056 52.0208 81.7891 51.8385 81.4766 51.6953C81.1641 51.5521 80.8385 51.487 80.5 51.5C80.1484 51.5 79.8229 51.5651 79.5234 51.6953C79.224 51.8255 78.9635 52.0013 78.7422 52.2227C78.5208 52.444 78.3385 52.7109 78.1953 53.0234C78.0521 53.3359 77.987 53.6615 78 54Z" fill="#E949A3"/>
</g>
</g>
<defs>
<filter id="filter0_d_412_1649" x="0" y="0" width="136" height="136" filterUnits="userSpaceOnUse" color-interpolation-filters="sRGB">
<feFlood flood-opacity="0" result="BackgroundImageFix"/>
<feColorMatrix in="SourceAlpha" type="matrix" values="0 0 0 0 0 0 0 0 0 0 0 0 0 0 0 0 0 0 127 0" result="hardAlpha"/>
<feOffset dy="4"/>
<feGaussianBlur stdDeviation="14"/>
<feComposite in2="hardAlpha" operator="out"/>
<feColorMatrix type="matrix" values="0 0 0 0 0 0 0 0 0 0 0 0 0 0 0 0 0 0 0.05 0"/>
<feBlend mode="normal" in2="BackgroundImageFix" result="effect1_dropShadow_412_1649"/>
<feBlend mode="normal" in="SourceGraphic" in2="effect1_dropShadow_412_1649" result="shape"/>
</filter>
<clipPath id="clip0_412_1649">
<rect width="40" height="40" fill="white" transform="translate(48 44)"/>
</clipPath>
</defs>
</svg>
